<svg width="112" height="121" viewBox="0 0 112 121" fill="none" xmlns="http://www.w3.org/2000/svg">
<g clip-path="url(#clip0_182_363)">
<path d="M0.256058 106.907C1.90761 109.509 3.11887 112.366 3.84114 115.363C6.91406 95.3323 16.563 100.935 29.121 109.524C30.8163 110.518 35.5691 113.206 35.2157 109.468C29.6332 97.4475 16.4196 90.6051 10.4428 78.508C9.37048 76.8078 8.85289 74.8165 8.96152 72.8093C9.07015 70.8021 9.79964 68.8783 11.0492 67.3037C12.2987 65.7291 14.0066 64.5816 15.9366 64.0198C17.8666 63.458 19.9235 63.5097 21.8229 64.1677C32.5525 67.7528 40.2604 76.4338 49.9043 81.7449C65.2996 92.5769 84.0547 82.7692 78.5849 63.3995C68.1677 64.557 47.5022 59.5225 52.424 45.3512C62.3393 31.9328 79.3428 48.4702 82.4772 59.7632C111.388 54.2934 113.452 23.682 106.446 0.204858L107.081 0C115.506 24.2198 113.017 56.0808 83.3889 62.6313C88.9355 79.1636 75.0152 96.0288 57.6173 91.4758C44.8134 88.3619 35.2566 78.9741 24.2197 72.6541C21.6282 71.3481 17.3108 68.9154 15.8409 72.4493C16.2762 78.2776 21.9867 83.2045 25.5718 87.8139C30.3963 93.4476 35.9224 98.6101 39.318 105.412C42.3295 110.425 38.6317 117.79 32.3118 115.946C20.1276 111.798 10.7501 92.9815 4.96788 115.772C6.83724 113.253 10.0279 110.881 13.3365 111.537V111.793C9.55164 113.411 7.75397 116.838 5.07542 119.66C4.85098 119.921 4.54962 120.104 4.21459 120.183C3.87957 120.262 3.52811 120.233 3.21067 120.1C2.89322 119.967 2.62611 119.736 2.44769 119.442C2.26927 119.148 2.18871 118.804 2.21759 118.461C2.35587 114.559 1.39304 110.712 -1.52588e-05 107.066L0.256058 106.907ZM74.2572 53.643C55.8196 29.4386 42.1758 60.3778 77.622 60.301C76.7574 57.9608 75.6285 55.727 74.2572 53.643ZM4.30206 118.538C4.30206 118.579 4.29694 118.564 4.30206 118.538V118.538Z" fill="#FFB514"/>
<path d="M102.508 23.5794C101.852 31.7432 97.7907 42.4369 91.8599 48.1628C91.8496 48.1751 91.8436 48.1905 91.843 48.2065C91.8424 48.2226 91.8472 48.2384 91.8567 48.2514C91.8661 48.2643 91.8796 48.2738 91.8951 48.2782C91.9106 48.2825 91.927 48.2816 91.9419 48.2755C99.1888 44.0861 103.983 31.7432 102.646 23.5948C102.644 23.579 102.636 23.5643 102.625 23.5531C102.614 23.5419 102.599 23.5349 102.583 23.5331C102.567 23.5314 102.551 23.535 102.537 23.5434C102.524 23.5518 102.513 23.5645 102.508 23.5794Z" fill="#3379FF"/>
<path d="M102.692 15.8051C102.228 17.2816 102.199 18.8607 102.61 20.353C102.625 20.4119 102.66 20.4637 102.709 20.4995C102.758 20.5354 102.818 20.553 102.879 20.5493C102.939 20.5457 102.997 20.521 103.041 20.4796C103.086 20.4382 103.114 20.3825 103.122 20.3223C103.445 18.8453 103.475 17.3191 103.209 15.8307C103.204 15.7675 103.176 15.7084 103.131 15.6643C103.085 15.6203 103.025 15.5943 102.962 15.5911C102.899 15.588 102.836 15.608 102.787 15.6473C102.737 15.6867 102.703 15.7428 102.692 15.8051Z" fill="#3379FF"/>
<path d="M50.022 72.2393C49.726 71.6185 49.2975 71.0702 48.7665 70.6331C48.2356 70.1959 47.6152 69.8806 46.9491 69.7093C46.8815 69.6939 46.811 69.6973 46.7453 69.7192C46.6795 69.7411 46.621 69.7806 46.5761 69.8334C46.5313 69.8862 46.5017 69.9503 46.4907 70.0187C46.4797 70.0871 46.4877 70.1572 46.5138 70.2215C46.8095 70.8425 47.2379 71.3909 47.7689 71.8281C48.2999 72.2653 48.9205 72.5805 49.5867 72.7515C49.654 72.7651 49.7236 72.7604 49.7884 72.7379C49.8532 72.7154 49.9109 72.676 49.9553 72.6237C49.9998 72.5715 50.0294 72.5082 50.0411 72.4406C50.0528 72.373 50.0462 72.3035 50.022 72.2393Z" fill="#3379FF"/>
<path d="M44.9722 68.4853C38.3654 61.269 24.9316 51.702 15.5336 57.392C15.4942 57.4104 15.4635 57.4432 15.4477 57.4837C15.4319 57.5241 15.4323 57.5691 15.4487 57.6093C15.4652 57.6494 15.4965 57.6817 15.5361 57.6994C15.5758 57.7172 15.6207 57.719 15.6616 57.7044C25.7408 55.4612 36.0607 64.0961 44.7673 68.7772C44.806 68.8044 44.854 68.815 44.9006 68.8069C44.9471 68.7987 44.9886 68.7724 45.0157 68.7337C45.0429 68.695 45.0536 68.6471 45.0454 68.6005C45.0373 68.5539 45.0109 68.5124 44.9722 68.4853Z" fill="#3379FF"/>
</g>
<defs>
<clipPath id="clip0_182_363">
<rect width="111.287" height="120.226" fill="white" transform="matrix(-1 0 0 1 111.287 0)"/>
</clipPath>
</defs>
</svg>
