<svg width="77" height="53" viewBox="0 0 77 53" fill="none" xmlns="http://www.w3.org/2000/svg">
<g clip-path="url(#clip0_182_368)">
<path d="M76.2682 40.8419C72.3604 42.5104 68.9013 42.6348 64.778 41.6395C64.1404 41.7439 64.9713 42.306 65.1779 42.4815C67.0685 43.9766 70.1476 44.0144 72.5781 43.8878C66.6886 47.3091 59.1884 50.2394 52.3614 49.484C44.4347 48.7664 36.2347 43.1013 35.4238 34.7592C40.3336 33.0152 45.3078 29.9827 47.836 25.2573C50.5152 18.8702 43.9037 15.64 38.5452 19.5122C34.1997 22.6536 31.927 28.0543 31.7537 33.3596C11.1594 37.5117 -2.26362 19.6255 2.04631 0.228634C2.05255 0.204978 2.0539 0.180299 2.05028 0.156103C2.04666 0.131907 2.03814 0.108703 2.02525 0.0879095C2.01236 0.0671164 1.99536 0.0491705 1.9753 0.0351684C1.95524 0.0211663 1.93253 0.0114023 1.90857 0.00647279C1.88552 0.000117263 1.86143 -0.00158011 1.83772 0.00147861C1.814 0.00453733 1.79114 0.0122912 1.77045 0.0242876C1.74977 0.0362841 1.73168 0.052282 1.71725 0.0713473C1.70282 0.0904125 1.69234 0.112163 1.68641 0.135327C-3.70989 20.272 10.4107 39.2157 31.8848 35.6656C32.5846 41.8439 36.979 47.1269 42.4463 49.8106C52.1837 54.7404 64.9602 51.3857 73.1624 44.8053C72.9535 45.9161 72.3293 46.9114 72.116 48.0178C71.8672 49.313 72.3581 51.6834 72.9469 50.9503C73.2082 49.7148 73.564 48.5012 74.011 47.3202C74.442 46.1183 74.9663 44.7742 75.4529 43.5945L75.5506 43.3724L76.5148 41.1108C76.5311 41.0754 76.5366 41.0359 76.5306 40.9974C76.5246 40.9589 76.5073 40.923 76.4809 40.8943C76.4546 40.8656 76.4203 40.8453 76.3825 40.836C76.3446 40.8266 76.3049 40.8287 76.2682 40.8419ZM37.7654 25.1596C41.0778 18.7947 48.6513 19.8588 44.2925 25.8505C41.9009 28.6761 38.8483 30.8671 35.4061 32.2288C35.6395 29.7225 36.4468 27.3037 37.7654 25.1596Z" fill="#3379FF"/>
<path d="M5.01212 29.4495C5.02792 29.4302 5.04832 29.4152 5.07144 29.4059C5.09455 29.3965 5.11965 29.3931 5.14442 29.396C5.16919 29.3989 5.19284 29.4079 5.2132 29.4223C5.23356 29.4367 5.24997 29.456 5.26094 29.4784C7.28927 33.5484 11.828 36.4743 15.8514 36.7764C15.8875 36.7787 15.9214 36.7947 15.9462 36.8211C15.971 36.8475 15.9847 36.8824 15.9847 36.9186C15.9843 36.955 15.9719 36.9901 15.9494 37.0187C15.9268 37.0472 15.8955 37.0675 15.8603 37.0763C11.2326 38.2138 6.52948 33.8106 4.97435 29.7295C4.95624 29.6829 4.95101 29.6324 4.95922 29.5831C4.96743 29.5338 4.98878 29.4877 5.02101 29.4495H5.01212Z" fill="#3379FF"/>
<path d="M48.3825 16.0066C51.0307 15.7133 52.6724 19.0613 51.4195 21.2562C51.4114 21.2713 51.3986 21.2832 51.383 21.29C51.3673 21.2968 51.3499 21.2981 51.3334 21.2938C51.3169 21.2894 51.3024 21.2796 51.2922 21.2659C51.282 21.2522 51.2768 21.2355 51.2773 21.2185C51.2773 19.0568 50.4553 16.9974 48.3647 16.1532C48.3484 16.1475 48.3345 16.1365 48.3253 16.1218C48.3162 16.1072 48.3123 16.0898 48.3144 16.0727C48.3165 16.0555 48.3244 16.0396 48.3368 16.0276C48.3492 16.0155 48.3653 16.0081 48.3825 16.0066Z" fill="#3379FF"/>
<path d="M4.51006 28.0921C4.29936 28.1104 4.0894 28.0494 3.92133 27.921C3.79402 27.8295 3.69724 27.7018 3.64363 27.5545C3.59211 27.4118 3.58514 27.2569 3.62364 27.1101C3.67516 26.911 3.78687 26.7325 3.94355 26.5992C4.13141 26.6506 4.30679 26.7398 4.45896 26.8613C4.56173 26.9426 4.63971 27.051 4.68408 27.1743C4.72844 27.2976 4.73743 27.4308 4.71001 27.5589C4.6677 27.7448 4.60044 27.9242 4.51006 28.0921Z" fill="#3379FF"/>
<path d="M51.124 22.6669C51.1262 22.6544 51.1323 22.6428 51.1415 22.634C51.1506 22.6251 51.1624 22.6194 51.175 22.6177C51.1876 22.616 51.2005 22.6183 51.2117 22.6243C51.2229 22.6304 51.2319 22.6399 51.2373 22.6514C51.2983 22.7725 51.3338 22.9048 51.3417 23.0402C51.3513 23.2233 51.3257 23.4066 51.2662 23.58C51.2069 23.7528 51.1141 23.9121 50.993 24.0488C50.9043 24.1514 50.7954 24.2346 50.673 24.2932C50.6618 24.2979 50.6493 24.2993 50.6373 24.297C50.6253 24.2948 50.6142 24.289 50.6054 24.2805C50.5966 24.2719 50.5905 24.261 50.5879 24.249C50.5854 24.2371 50.5864 24.2246 50.5908 24.2132C50.6464 24.0977 50.6908 23.991 50.7352 23.8844C50.7952 23.74 50.8463 23.5956 50.8974 23.4512C50.9485 23.3068 50.9952 23.1624 51.0374 23.0069C51.0685 22.9002 51.0974 22.7914 51.124 22.6669Z" fill="#3379FF"/>
<path d="M50.0376 46.7759C53.4833 47.6401 58.4397 47.4557 61.6122 45.8095C61.619 45.8048 61.6273 45.803 61.6355 45.8044C61.6436 45.8059 61.6508 45.8105 61.6555 45.8173C61.6602 45.8241 61.6621 45.8324 61.6606 45.8406C61.6592 45.8487 61.6545 45.8559 61.6477 45.8606C58.9196 48.2577 53.1812 48.5132 50.0176 46.8337C50.0113 46.8301 50.0065 46.8244 50.0039 46.8176C50.0014 46.8108 50.0013 46.8033 50.0037 46.7965C50.006 46.7897 50.0107 46.7838 50.0169 46.7801C50.0231 46.7763 50.0304 46.7749 50.0376 46.7759Z" fill="#3379FF"/>
</g>
<defs>
<clipPath id="clip0_182_368">
<rect width="76" height="52.1664" fill="white" transform="translate(0.532959)"/>
</clipPath>
</defs>
</svg>
