<svg width="63" height="85" viewBox="0 0 63 85" fill="none" xmlns="http://www.w3.org/2000/svg">
<g clip-path="url(#clip0_182_364)">
<path d="M27.2365 79.7137C28.2491 79.3423 29.2125 79.0144 30.2396 78.7329C30.2599 78.7289 30.281 78.7313 30.2998 78.7399C30.3186 78.7485 30.3343 78.7628 30.3446 78.7808C30.3548 78.7987 30.3592 78.8195 30.357 78.84C30.3548 78.8606 30.3463 78.88 30.3325 78.8954C29.9319 79.2893 29.4453 79.5848 28.9111 79.7585C28.3768 79.9322 27.8095 79.9794 27.2539 79.8965C27.2336 79.8925 27.2152 79.8821 27.2013 79.8668C27.1874 79.8515 27.1789 79.8321 27.1769 79.8116C27.175 79.791 27.1797 79.7704 27.1905 79.7527C27.2012 79.7351 27.2173 79.7214 27.2365 79.7137Z" fill="#3379FF"/>
<path d="M61.5651 1.31333C61.8146 -3.74409 51.9638 7.38921 45.4788 8.05076C45.4788 8.05076 45.296 8.05077 45.2786 8.21035C45.2612 8.36994 45.4469 8.39895 45.4469 8.39895C49.7122 9.0373 53.934 6.61449 57.5029 4.48474C46.2564 21.2471 28.5859 19.3408 5.98272 19.7905C1.317 19.8833 2.01337 22.8836 3.68757 24.8247C8.15888 28.9188 15.0472 30.6597 20.4354 33.2712C27.1583 36.3178 35.422 38.9379 41.7329 42.8057C43.8626 44.1114 43.8539 45.7334 40.9756 45.9771C35.5148 46.4443 28.8412 46.1077 23.3486 46.1802C20.2294 46.1976 17.0261 46.009 13.8779 46.4704C11.5566 46.6619 10.5091 48.9628 12.5751 50.402C18.7728 54.1305 39.9919 57.9257 43.6827 65.5452C48.4529 75.4106 31.9459 83.8251 23.4995 83.9325C23.4453 83.9332 23.3937 83.9553 23.3556 83.9938C23.3176 84.0324 23.2963 84.0843 23.2963 84.1385C23.2963 84.2154 23.3269 84.2892 23.3813 84.3436C23.4357 84.3981 23.5095 84.4286 23.5865 84.4286C34.4558 84.9103 53.8962 73.1125 43.941 62.2026C38.6398 56.3995 25.7424 54.174 17.4758 50.0364C17.029 49.813 15.6536 49.0528 17.6847 49.1427C26.3227 49.5344 35.0303 50.1437 43.674 49.1978C51.5634 48.1127 48.4529 42.4923 43.4651 39.7881C34.4703 34.2026 22.2837 30.0272 12.8304 25.0974C11.3274 24.314 11.0895 23.5799 13.0741 23.5393C32.3521 23.1563 50.1735 21.1542 58.1557 5.96164C57.7872 10.0238 58.736 14.7447 61.9684 17.4954C61.9684 17.4954 62.0902 17.6288 62.215 17.5476C62.3398 17.4663 62.2643 17.3097 62.2643 17.3097C60.5089 11.9243 61.3678 5.3407 61.5651 1.31333ZM14.1332 48.0691C14.11 48.0198 14.11 48.0372 14.1332 48.0691V48.0691ZM44.9623 45.0167C44.9942 44.9819 44.9942 44.9935 44.9623 45.0167V45.0167Z" fill="#FFB514"/>
<path d="M31.9632 78.0916C36.0805 75.4657 40.6679 71.3223 40.1456 66.0559C40.1428 66.044 40.1445 66.0315 40.1504 66.0207C40.1563 66.01 40.166 66.0019 40.1776 65.9979C40.1892 65.9939 40.2018 65.9944 40.2131 65.9992C40.2243 66.004 40.2334 66.0129 40.2385 66.024C42.9659 71.2091 37.1338 77.4446 31.998 78.1845C31.9857 78.1891 31.9721 78.1886 31.9601 78.1832C31.9481 78.1777 31.9388 78.1678 31.9342 78.1554C31.9296 78.1431 31.93 78.1295 31.9355 78.1175C31.9409 78.1056 31.9509 78.0962 31.9632 78.0916Z" fill="#3379FF"/>
<path d="M19.7446 36.9533C19.3564 36.9804 18.9669 36.9222 18.6036 36.7828C18.2402 36.6435 17.9117 36.4264 17.641 36.1467C17.614 36.1169 17.5957 36.0801 17.5883 36.0406C17.5809 36.001 17.5846 35.9601 17.5991 35.9225C17.6135 35.8849 17.6381 35.8521 17.6701 35.8276C17.7021 35.8032 17.7402 35.7881 17.7803 35.784C18.1685 35.757 18.558 35.8152 18.9214 35.9545C19.2848 36.0939 19.6133 36.311 19.8839 36.5907C19.911 36.6205 19.9292 36.6572 19.9366 36.6968C19.944 36.7364 19.9403 36.7773 19.9259 36.8149C19.9114 36.8524 19.8868 36.8853 19.8549 36.9097C19.8229 36.9342 19.7847 36.9493 19.7446 36.9533Z" fill="#3379FF"/>
<path d="M15.2241 35.012C9.71114 34.4143 0.838162 31.4866 0.286865 25.286C0.286865 25.264 0.294205 25.2426 0.307745 25.2253C0.321285 25.2079 0.340238 25.1956 0.361583 25.1903C0.382927 25.1849 0.405443 25.1869 0.42555 25.1958C0.445658 25.2047 0.462198 25.2201 0.472552 25.2395C2.82282 30.6016 10.2305 32.4122 15.2705 34.8147C15.2967 34.8209 15.3193 34.8372 15.3335 34.86C15.3476 34.8829 15.3521 34.9104 15.346 34.9366C15.3398 34.9627 15.3235 34.9854 15.3007 34.9995C15.2778 35.0137 15.2503 35.0182 15.2241 35.012Z" fill="#3379FF"/>
<path d="M38.3523 15.2204C40.8304 14.6498 43.1984 13.6775 45.3625 12.342C45.3776 12.332 45.396 12.3279 45.414 12.3308C45.4319 12.3336 45.4482 12.3431 45.4595 12.3573C45.4708 12.3715 45.4763 12.3895 45.475 12.4076C45.4737 12.4257 45.4657 12.4427 45.4525 12.4552C43.7463 14.434 40.9753 15.5134 38.3784 15.3567C38.2885 15.3655 38.2711 15.2378 38.3523 15.2204Z" fill="#3379FF"/>
</g>
<defs>
<clipPath id="clip0_182_364">
<rect width="62" height="84.4429" fill="white" transform="translate(0.286865)"/>
</clipPath>
</defs>
</svg>
