<svg width="49" height="48" viewBox="0 0 49 48" fill="none" xmlns="http://www.w3.org/2000/svg">
<path fill-rule="evenodd" clip-rule="evenodd" d="M37.3882 6.304C36.9722 5.984 36.5509 5.664 36.1243 5.344C35.687 5.03467 35.2497 4.736 34.8125 4.448C34.3645 4.16 33.9112 3.888 33.4526 3.632C33.0047 3.36534 32.546 3.10933 32.0768 2.864C31.6181 2.62933 31.1542 2.40533 30.6849 2.192C30.205 1.97867 29.7304 1.776 29.2611 1.584C28.7811 1.40267 28.3012 1.232 27.8212 1.072C27.3306 0.922668 26.8453 0.784 26.3654 0.656002C25.8748 0.53867 25.3895 0.432003 24.9096 0.336002C24.4189 0.250668 23.9337 0.181332 23.4537 0.127998C22.9631 0.0746651 22.4725 0.0373344 21.9819 0.0160027C21.5019 -0.00533295 21.022 -0.00533295 20.542 0.0160027C20.0514 0.0373344 19.5715 0.0746651 19.1022 0.127998C18.6223 0.191998 18.1423 0.277332 17.6624 0.383999C17.1931 0.48 16.7291 0.597336 16.2705 0.736004C15.8012 0.885334 15.3373 1.05067 14.8787 1.232C14.4307 1.41334 13.9828 1.61067 13.5348 1.824C13.0975 2.03733 12.6603 2.272 12.223 2.528C11.7963 2.77333 11.3751 3.04 10.9591 3.328C10.5432 3.60533 10.1325 3.904 9.72724 4.224C9.33262 4.53333 8.94333 4.85867 8.55937 5.2C8.17542 5.54134 7.80212 5.89333 7.4395 6.256C7.08754 6.61867 6.74091 6.99733 6.39961 7.392C6.05832 7.776 5.72769 8.176 5.40772 8.592C5.09842 9.008 4.79979 9.42934 4.51182 9.856C4.21319 10.2827 3.93589 10.72 3.67992 11.168C3.41328 11.616 3.16264 12.0693 2.928 12.528C2.69336 12.9867 2.47472 13.456 2.27207 13.936C2.06943 14.4053 1.88278 14.8853 1.71213 15.376C1.54149 15.856 1.38684 16.3467 1.24819 16.848C1.10953 17.3387 0.981548 17.8347 0.864228 18.336C0.757573 18.8373 0.666916 19.3387 0.592258 19.84C0.5176 20.3413 0.453607 20.848 0.400279 21.36C0.357617 21.872 0.325621 22.3787 0.30429 22.88C0.282959 23.392 0.277626 23.904 0.288292 24.416C0.309623 24.9173 0.341619 25.424 0.384281 25.936C0.426943 26.4373 0.48027 26.9387 0.544263 27.44C0.618922 27.9413 0.704246 28.4373 0.800235 28.928C0.90689 29.4187 1.02421 29.904 1.1522 30.384C1.28018 30.8747 1.42417 31.3547 1.58415 31.824C1.73346 32.2933 1.90411 32.7573 2.09609 33.216C2.2774 33.6853 2.47472 34.1387 2.68803 34.576C2.90134 35.024 3.13064 35.4613 3.37595 35.888C3.62125 36.3253 3.87723 36.7467 4.14386 37.152C4.4105 37.568 4.6878 37.9733 4.97577 38.368C5.26374 38.752 5.56771 39.1307 5.88767 39.504C6.19697 39.8773 6.51693 40.24 6.84756 40.592C7.18886 40.9547 7.53549 41.3013 7.88745 41.632C8.25007 41.9627 8.61803 42.2827 8.99133 42.592C9.36462 42.9013 9.74324 43.1947 10.1272 43.472C10.5218 43.76 10.9218 44.0373 11.3271 44.304C11.7324 44.56 12.1483 44.8053 12.5749 45.04C12.9909 45.2747 13.4122 45.4987 13.8388 45.712C14.2761 45.9253 14.7187 46.1227 15.1666 46.304C15.6039 46.4853 16.0519 46.6507 16.5105 46.8C16.9584 46.96 17.4117 47.0987 17.8703 47.216C18.3396 47.344 18.8036 47.456 19.2622 47.552C19.7315 47.648 20.2061 47.728 20.686 47.792C21.1553 47.856 21.6299 47.904 22.1099 47.936C22.5791 47.968 23.0538 47.9893 23.5337 48C24.0137 48 24.4936 47.9893 24.9735 47.968C25.4535 47.9467 25.9281 47.9093 26.3974 47.856C26.8773 47.8027 27.3573 47.7333 27.8372 47.648C28.3065 47.5733 28.7758 47.4773 29.2451 47.36C29.7144 47.2533 30.1836 47.1307 30.6529 46.992C31.1222 46.8533 31.5862 46.704 32.0448 46.544C32.5034 46.3733 32.9567 46.192 33.4046 46C33.8526 45.808 34.2952 45.6 34.7325 45.376C35.1698 45.1627 35.607 44.9333 36.0443 44.688C36.4709 44.4427 36.8922 44.1813 37.3082 43.904C37.7135 43.6267 38.1188 43.3387 38.524 43.04C38.9293 42.7413 39.324 42.432 39.7079 42.112C40.0919 41.792 40.4652 41.456 40.8278 41.104C41.1904 40.752 41.5477 40.3947 41.8997 40.032C42.241 39.6587 42.5769 39.28 42.9076 38.896C43.2275 38.512 43.5368 38.1173 43.8355 37.712C44.1341 37.3067 44.4221 36.896 44.6994 36.48C44.9767 36.0533 45.238 35.6213 45.4833 35.184C45.7286 34.7573 45.9632 34.32 46.1872 33.872C46.4005 33.424 46.6031 32.976 46.7951 32.528C46.9764 32.0693 47.1471 31.6053 47.3071 31.136C47.4564 30.6773 47.595 30.2133 47.723 29.744C47.8403 29.2747 47.9417 28.8053 48.027 28.336C48.1016 27.856 48.1603 27.3813 48.203 26.912C48.2563 26.432 48.283 25.952 48.283 25.472C48.283 25.0027 48.267 24.528 48.235 24.048C48.1923 23.5787 48.1336 23.104 48.059 22.624C47.9843 22.1547 47.8883 21.6853 47.771 21.216C47.6644 20.7467 47.5364 20.2773 47.3871 19.808C47.2377 19.3493 47.0671 18.8907 46.8751 18.432C46.6938 17.9733 46.4965 17.52 46.2832 17.072C46.0699 16.624 45.8406 16.176 45.5953 15.728C45.35 15.2907 45.0887 14.8533 44.8113 14.416C44.5447 13.9893 44.2621 13.5627 43.9634 13.136C43.6541 12.72 43.3395 12.304 43.0195 11.888C42.6996 11.4827 42.3636 11.0827 42.0117 10.688C41.6704 10.2933 41.3131 9.904 40.9398 9.52C40.5772 9.136 40.2039 8.76267 39.8199 8.4C39.4253 8.03733 39.0307 7.68 38.636 7.328C38.2307 6.976 37.8148 6.63467 37.3882 6.304Z" fill="#FFE2A2"/>
</svg>
