<svg width="119" height="45" viewBox="0 0 119 45" fill="none" xmlns="http://www.w3.org/2000/svg">
<g clip-path="url(#clip0_182_367)">
<path fill-rule="evenodd" clip-rule="evenodd" d="M87.3455 5.7205C81.4599 2.72948 74.6403 1.37859 68.2035 2.72313C66.1898 3.14375 63.6967 4.24026 61.2766 5.64182C58.8657 7.03806 56.6125 8.68729 55.0759 10.148C54.9483 10.2693 54.8216 10.3928 54.6958 10.5184C58.0813 12.5633 60.9809 15.3853 63.1981 19.3127C64.3061 21.2755 64.7732 23.852 64.4216 26.1954C64.0687 28.5482 62.8508 30.843 60.4089 31.9095C56.5163 33.6096 52.5463 31.6197 50.0892 29.0501C46.977 25.7952 46.5542 21.8338 47.5562 18.1435C48.2371 15.6361 49.5771 13.2248 51.203 11.1498C48.1164 9.70865 44.6303 8.79523 40.8364 8.18962C28.8485 6.27601 13.8087 8.24047 1.84976 10.662C1.25488 10.7824 0.675169 10.3969 0.554949 9.80085C0.434728 9.2048 0.819519 8.62396 1.4144 8.50351C13.4225 6.07205 28.786 4.03615 41.1822 6.01494C45.3226 6.67586 49.2197 7.71093 52.6918 9.42343C52.9781 9.12137 53.2691 8.83006 53.5632 8.55053C55.2515 6.9456 57.6521 5.19737 60.1767 3.73528C62.6922 2.27853 65.4164 1.05586 67.7549 0.567371C74.7781 -0.899647 82.1068 0.589071 88.3397 3.75657C95.1563 7.22077 103.4 14.2879 107.636 20.8002C109.48 23.6345 110.873 26.9304 111.307 30.2579C111.944 30.0865 112.581 29.9204 113.217 29.7547C114.528 29.4126 115.833 29.0723 117.123 28.6913C117.705 28.5194 118.316 28.853 118.488 29.4363C118.659 30.0196 118.327 30.6318 117.744 30.8036C116.308 31.2275 114.919 31.59 113.562 31.9439C112.849 32.1299 112.145 32.3136 111.447 32.5027C111.421 35.9957 110.202 39.4092 107.228 42.1569C104.86 44.3438 102.06 45.4096 98.7853 44.8551C97.7631 44.682 96.5712 44.2947 95.7542 43.474C95.327 43.0448 95.0025 42.4954 94.882 41.8249C94.7628 41.1618 94.8572 40.4612 95.1315 39.7429C95.7729 38.0625 97.1578 36.7513 98.5445 35.7537C99.9371 34.7517 101.471 33.9697 102.582 33.4038L102.606 33.3914C104.768 32.2893 106.966 31.5111 109.165 30.8595C108.835 27.8355 107.569 24.73 105.795 22.0027C101.79 15.8469 93.8543 9.02826 87.3455 5.7205ZM109.229 33.1378C107.331 33.7177 105.471 34.402 103.602 35.3542C102.473 35.93 101.073 36.6456 99.8264 37.5424C98.5638 38.4508 97.5964 39.4499 97.1842 40.5296C97.0194 40.9613 97.0119 41.2502 97.045 41.4344C97.0768 41.6113 97.1591 41.767 97.3104 41.9189C97.6505 42.2606 98.3029 42.54 99.1515 42.6838C101.651 43.1071 103.787 42.3397 105.738 40.5377C108.025 38.425 109.07 35.8606 109.229 33.1378ZM53.1906 12.1854C51.5981 14.1405 50.3028 16.4167 49.6769 18.7216C48.8294 21.8431 49.2132 24.9508 51.6763 27.5267C53.837 29.7865 56.8585 31.0579 59.5307 29.8908C61.0675 29.2196 61.9685 27.733 62.2482 25.8681C62.5294 23.9939 62.143 21.9166 61.2851 20.3969C59.2078 16.7173 56.4659 14.0851 53.1906 12.1854Z" fill="#3379FF"/>
</g>
<defs>
<clipPath id="clip0_182_367">
<rect width="118" height="45" fill="white" transform="translate(0.532959)"/>
</clipPath>
</defs>
</svg>
