<svg width="66" height="63" viewBox="0 0 66 63" fill="none" xmlns="http://www.w3.org/2000/svg">
<g clip-path="url(#clip0_182_365)">
<path fill-rule="evenodd" clip-rule="evenodd" d="M21.7703 56.5272C21.5484 55.5157 22.2512 54.5007 23.3401 54.2601C32.3466 52.2701 41.4084 50.6819 50.4362 49.0997C51.5852 48.8983 52.7337 48.697 53.8815 48.495C54.9795 48.3017 56.0083 48.9732 56.1793 49.9948C56.3502 51.0163 55.5987 52.0012 54.5006 52.1944C53.3499 52.397 52.2005 52.5984 51.0523 52.7997C42.0134 54.384 33.0503 55.9551 24.1437 57.923C23.0548 58.1636 21.9921 57.5387 21.7703 56.5272Z" fill="#FFB514"/>
<path fill-rule="evenodd" clip-rule="evenodd" d="M59.1187 22.9638C59.622 23.9729 59.2389 25.1995 58.263 25.7034C56.4212 26.6543 54.5801 27.6022 52.7405 28.5494C41.989 34.085 31.2878 39.5948 20.8052 45.5262C19.8487 46.0675 18.636 45.704 18.0965 44.7143C17.5571 43.7247 17.8952 42.4837 18.8516 41.9425C29.4065 35.9702 40.1844 30.4211 50.933 24.887C52.77 23.9413 54.6061 22.9959 56.4401 22.049C57.416 21.5451 58.6153 21.9547 59.1187 22.9638Z" fill="#FFB514"/>
<path fill-rule="evenodd" clip-rule="evenodd" d="M30.2344 6.20052C31.0787 6.86466 31.2298 8.08996 30.5719 8.9373L9.11358 36.5725C8.45564 37.4199 7.23782 37.5684 6.39351 36.9042C5.5492 36.2401 5.39812 35.0148 6.05606 34.1675L27.5143 6.53221C28.1723 5.68488 29.3901 5.53637 30.2344 6.20052Z" fill="#FFB514"/>
</g>
<defs>
<clipPath id="clip0_182_365">
<rect width="55" height="51" fill="white" transform="translate(0.286865 12.3723) rotate(-13)"/>
</clipPath>
</defs>
</svg>
