<svg width="58" height="69" viewBox="0 0 58 69" fill="none" xmlns="http://www.w3.org/2000/svg">
<g clip-path="url(#clip0_182_366)">
<g clip-path="url(#clip1_182_366)">
<path d="M12.359 26.3473C24.0345 24.2758 36.1633 19.8085 43.2542 9.75556C44.078 8.59352 40.2395 7.81113 39.4545 8.92325C32.7758 18.3793 21.4625 22.5194 10.4848 24.4767C9.80584 24.5976 9.12297 25.1201 9.66154 25.7874C10.2001 26.4548 11.5846 26.4981 12.3651 26.3601L12.359 26.3473Z" fill="#FFB514"/>
<path d="M39.1977 9.3204C36.9071 20.315 37.5365 32.3509 43.5798 42.0879C44.0441 42.8457 45.154 43.036 45.9805 42.9778C46.3827 42.9501 47.9414 42.6202 47.4677 41.8591C41.5015 32.2341 40.9304 20.4839 43.1932 9.62797C43.4623 8.35496 39.5012 7.88985 39.2071 9.32373L39.1977 9.3204Z" fill="#FFB514"/>
<path d="M9.17114 25.6143C13.82 34.7955 17.3417 44.7665 16.9715 55.1876C16.9182 56.6004 20.9176 56.8669 20.9576 55.4919C21.3211 44.9093 17.775 34.707 13.0529 25.3728C12.4384 24.1696 8.52333 24.3252 9.16503 25.6016L9.17446 25.6049L9.17114 25.6143Z" fill="#FFB514"/>
<path d="M21.9743 56.6673C29.1725 50.3958 37.5582 45.657 46.6971 42.8703C47.5047 42.6252 47.4138 41.8613 46.8042 41.4553C45.9944 40.9255 44.8678 40.9625 43.9869 41.2348C34.6445 44.0876 25.9747 48.97 18.6095 55.3841C17.2443 56.5777 21.014 57.4949 21.9776 56.6579L21.9743 56.6673Z" fill="#FFB514"/>
</g>
<g clip-path="url(#clip2_182_366)">
<path d="M29.4921 62.3636C33.1491 57.5477 38.078 53.7644 43.6901 51.4575C45.3383 50.7812 47.0298 50.2919 48.7558 49.8368C49.0654 49.7551 49.1046 49.5113 48.8748 49.3025C48.6199 49.0725 48.1312 48.972 47.7992 49.0579C41.706 50.6115 36.1116 53.5847 31.5964 57.9497C30.3467 59.1597 29.1911 60.4672 28.1397 61.8535C27.8066 62.2953 29.195 62.7522 29.4889 62.3619L29.4921 62.3636Z" fill="#1465FF"/>
</g>
</g>
<defs>
<clipPath id="clip0_182_366">
<rect width="57.1832" height="68.0819" fill="white" transform="translate(0.349731)"/>
</clipPath>
<clipPath id="clip1_182_366">
<rect width="41.9" height="53.09" fill="white" transform="translate(18.0226) rotate(19.4439)"/>
</clipPath>
<clipPath id="clip2_182_366">
<rect width="12.8028" height="21.087" fill="white" transform="translate(37.7974 43.46) rotate(27.7119)"/>
</clipPath>
</defs>
</svg>
