<svg viewBox="0 0 54 54" fill="none" xmlns="http://www.w3.org/2000/svg">
    <path
        d="M14 12C14 10.3431 15.3431 9 17 9C18.6569 9 20 10.3431 20 12V46C20 47.6569 18.6569 49 17 49C15.3431 49 14 47.6569 14 46V12Z"
        fill="#1465FF" />
    <path
        d="M24 8C24 6.34315 25.3431 5 27 5C28.6569 5 30 6.34315 30 8V38C30 39.6569 28.6569 41 27 41C25.3431 41 24 39.6569 24 38V8Z"
        fill="#FFB514" />
    <path
        d="M24 46C24 44.3431 25.3431 43 27 43C28.6569 43 30 44.3431 30 46C30 47.6569 28.6569 49 27 49C25.3431 49 24 47.6569 24 46Z"
        fill="#1465FF" />
    <path
        d="M34 19C34 17.3431 35.3431 16 37 16C38.6569 16 40 17.3431 40 19V46C40 47.6569 38.6569 49 37 49C35.3431 49 34 47.6569 34 46V19Z"
        fill="#1465FF" />
    <path
        d="M34 11C34 9.34315 35.3431 8 37 8C38.6569 8 40 9.34315 40 11C40 12.6569 38.6569 14 37 14C35.3431 14 34 12.6569 34 11Z"
        fill="#1465FF" />
</svg>