<svg width="518" height="400" viewBox="0 0 518 400" fill="none" xmlns="http://www.w3.org/2000/svg">
    <g opacity="0.41" clip-path="url(#clip0_153_180)">
        <g opacity="0.5">
            <path
                d="M0 533.333C286.083 533.333 518 294.552 518 -0.000366211C518 -294.552 286.083 -533.334 0 -533.334C-286.083 -533.334 -518 -294.552 -518 -0.000366211C-518 294.552 -286.083 533.333 0 533.333Z"
                fill="url(#paint0_radial_153_180)" />
            <path
                d="M6.10352e-05 480C257.475 480 466.2 265.096 466.2 -0.000335693C466.2 -265.097 257.475 -480 6.10352e-05 -480C-257.475 -480 -466.2 -265.097 -466.2 -0.000335693C-466.2 265.096 -257.475 480 6.10352e-05 480Z"
                fill="url(#paint1_radial_153_180)" />
            <path
                d="M-3.05176e-05 453.333C243.171 453.333 440.3 250.369 440.3 -0.000335693C440.3 -250.369 243.171 -453.334 -3.05176e-05 -453.334C-243.171 -453.334 -440.3 -250.369 -440.3 -0.000335693C-440.3 250.369 -243.171 453.333 -3.05176e-05 453.333Z"
                fill="url(#paint2_radial_153_180)" />
            <path
                d="M0.00012207 440.266C236.162 440.266 427.609 243.152 427.609 -0.000396729C427.609 -243.153 236.162 -440.267 0.00012207 -440.267C-236.162 -440.267 -427.609 -243.153 -427.609 -0.000396729C-427.609 243.152 -236.162 440.266 0.00012207 440.266Z"
                fill="url(#paint3_radial_153_180)" />
            <path
                d="M-3.05176e-05 386.666C207.41 386.666 375.55 213.55 375.55 -0.000366211C375.55 -213.55 207.41 -386.667 -3.05176e-05 -386.667C-207.411 -386.667 -375.55 -213.55 -375.55 -0.000366211C-375.55 213.55 -207.411 386.666 -3.05176e-05 386.666Z"
                fill="url(#paint4_radial_153_180)" />
            <path
                d="M0 333.333C178.802 333.333 323.75 184.095 323.75 -0.000335693C323.75 -184.095 178.802 -333.334 0 -333.334C-178.802 -333.334 -323.75 -184.095 -323.75 -0.000335693C-323.75 184.095 -178.802 333.333 0 333.333Z"
                fill="url(#paint5_radial_153_180)" />
            <path
                d="M6.10352e-05 313.333C168.074 313.333 304.325 173.049 304.325 -0.000366211C304.325 -173.05 168.074 -313.334 6.10352e-05 -313.334C-168.074 -313.334 -304.325 -173.05 -304.325 -0.000366211C-304.325 173.049 -168.074 313.333 6.10352e-05 313.333Z"
                fill="url(#paint6_radial_153_180)" />
            <path
                d="M3.05176e-05 240C128.738 240 233.1 132.548 233.1 -0.000350952C233.1 -132.549 128.738 -240 3.05176e-05 -240C-128.738 -240 -233.1 -132.549 -233.1 -0.000350952C-233.1 132.548 -128.738 240 3.05176e-05 240Z"
                fill="url(#paint7_radial_153_180)" />
            <path
                d="M0 200C107.281 200 194.25 110.457 194.25 -0.000350952C194.25 -110.457 107.281 -200 0 -200C-107.281 -200 -194.25 -110.457 -194.25 -0.000350952C-194.25 110.457 -107.281 200 0 200Z"
                fill="url(#paint8_radial_153_180)" />
            <path
                d="M0 133.333C71.5209 133.333 129.5 73.6376 129.5 -0.000396729C129.5 -73.6384 71.5209 -133.334 0 -133.334C-71.5209 -133.334 -129.5 -73.6384 -129.5 -0.000396729C-129.5 73.6376 -71.5209 133.333 0 133.333Z"
                fill="url(#paint9_radial_153_180)" />
            <path
                d="M-4.57764e-05 101.333C54.3558 101.333 98.42 55.9645 98.42 -0.000350952C98.42 -55.9652 54.3558 -101.334 -4.57764e-05 -101.334C-54.3559 -101.334 -98.42 -55.9652 -98.42 -0.000350952C-98.42 55.9645 -54.3559 101.333 -4.57764e-05 101.333Z"
                fill="url(#paint10_radial_153_180)" />
            <path
                d="M0 66.6664C35.7604 66.6664 64.75 36.8187 64.75 -0.000320435C64.75 -36.8193 35.7604 -66.667 0 -66.667C-35.7604 -66.667 -64.75 -36.8193 -64.75 -0.000320435C-64.75 36.8187 -35.7604 66.6664 0 66.6664Z"
                fill="url(#paint11_radial_153_180)" />
        </g>
        <path
            d="M14.9467 47.8849C11.9688 48.7541 8.91115 49.3298 5.83196 49.5983C2.75172 49.8636 -0.347152 49.8207 -3.41128 49.4711C-6.47541 49.1215 -9.50184 48.4642 -12.4369 47.5212C-15.3729 46.5752 -18.2146 45.3424 -20.9152 43.8441C-23.6158 42.3458 -26.1742 40.585 -28.5454 38.597C-30.9177 36.6059 -33.0998 34.3867 -35.0526 31.9768C-37.0055 29.5669 -38.732 26.9673 -40.1978 24.231C-41.6656 21.4885 -42.8717 18.6123 -43.8082 15.6544C-42.7508 18.5695 -41.4292 21.3774 -39.861 24.0262C-38.2958 26.676 -36.485 29.1636 -34.467 31.4443C-32.4479 33.7281 -30.2216 35.805 -27.833 37.6397C-25.4434 39.4774 -22.8875 41.0748 -20.2182 42.4028C-17.5479 43.7339 -14.7603 44.7975 -11.9138 45.5767C-9.06329 46.3579 -6.15105 46.8537 -3.22662 47.0542C-0.302182 47.2547 2.62959 47.1651 5.51928 46.7858C8.40898 46.4064 11.2526 45.7353 14.0051 44.7953C14.822 44.5164 15.6814 44.9961 15.9584 45.8427C16.2355 46.6894 15.8284 47.5831 15.0086 47.863C14.988 47.8703 14.9703 47.8766 14.9486 47.8808L14.9467 47.8849Z"
            fill="url(#paint12_linear_153_180)" />
        <path
            d="M74.4824 31.8274C72.4409 36.6247 69.955 41.2147 67.0682 45.5072C64.1767 49.7979 60.8861 53.7861 57.2544 57.4042C53.6228 61.0223 49.6517 64.2653 45.4246 67.0867C41.1926 69.9061 36.7063 72.299 32.0406 74.2267C27.3749 76.1544 22.5346 77.6189 17.6102 78.5991C12.6811 79.5774 7.66972 80.0664 2.6632 80.0549C-2.34332 80.0434 -7.3468 79.5364 -12.2462 78.545C-17.1553 77.5499 -21.9556 76.0723 -26.5748 74.1573C-21.8819 75.8696 -17.045 77.1244 -12.1464 77.8897C-7.24961 78.6599 -2.29593 78.9386 2.61969 78.7284C7.54016 78.52 12.4226 77.8227 17.1763 76.6574C21.9349 75.4941 26.5715 73.8597 30.9948 71.7923C35.423 69.7268 39.6447 67.225 43.5777 64.3454C47.5174 61.4627 51.1703 58.1972 54.4726 54.603C57.7748 51.0088 60.7276 47.0976 63.2799 42.9342C65.8321 38.7708 67.9771 34.3582 69.6958 29.7794C70.206 28.4205 71.6943 27.8101 73.0258 28.3465C74.3574 28.883 75.0321 30.3598 74.5201 31.7235C74.5075 31.7581 74.4967 31.7878 74.4793 31.8205L74.4824 31.8274Z"
            fill="url(#paint13_linear_153_180)" />
        <path
            d="M61.8974 82.6118C56.7175 86.4903 51.1803 89.8554 45.389 92.6379C39.5935 95.4152 33.549 97.6056 27.3601 99.1732C21.1713 100.741 14.8431 101.681 8.49511 101.998C2.14298 102.31 -4.22399 101.995 -10.5004 101.058C-16.7769 100.121 -22.9587 98.5688 -28.934 96.4366C-34.9134 94.2992 -40.6813 91.5779 -46.1359 88.3168C-51.5905 85.0558 -56.7368 81.2593 -61.4714 77.005C-66.2143 72.7403 -70.5414 68.023 -74.4018 62.9488C-70.3363 67.8509 -65.8321 72.3504 -60.9592 76.359C-56.0913 80.3717 -50.8588 83.8883 -45.3669 86.8499C-39.8708 89.8167 -34.1153 92.2284 -28.2122 94.0492C-22.3049 95.8751 -16.2409 97.1111 -10.1429 97.739C-4.04073 98.3721 2.10457 98.3981 8.16765 97.827C14.2399 97.2569 20.2348 96.0855 26.0496 94.33C31.8644 92.5745 37.493 90.2485 42.8399 87.3891C48.1868 84.5296 53.2429 81.1357 57.9362 77.2847C59.3292 76.142 61.3285 76.4457 62.4509 77.8915C63.5734 79.3373 63.4004 81.3768 62.0024 82.5237C61.9674 82.5531 61.9374 82.5783 61.8982 82.6024L61.8974 82.6118Z"
            fill="url(#paint14_linear_153_180)" />
        <path
            d="M120.486 -17.3786C121.32 -9.35421 121.419 -1.26119 120.776 6.74544C120.124 14.7533 118.728 22.6668 116.614 30.3499C114.5 38.033 111.666 45.4777 108.188 52.5567C104.702 59.6369 100.571 66.3435 95.8634 72.5662C91.1561 78.789 85.8808 84.5267 80.1409 89.6805C74.3932 94.8356 68.1796 99.3987 61.6061 103.287C55.0326 107.175 48.1004 110.396 40.9501 112.887C33.7844 115.381 26.4084 117.142 18.9496 118.176C26.3566 116.813 33.6177 114.724 40.6014 111.931C47.5863 109.145 54.2862 105.657 60.5782 101.542C66.878 97.4262 72.7699 92.6843 78.1507 87.4153C83.5393 82.1451 88.4231 76.3385 92.7103 70.1174C97.0053 63.895 100.71 57.2488 103.76 50.321C106.816 43.3838 109.216 36.157 110.916 28.7628C112.616 21.3685 113.625 13.8218 113.925 6.24915C114.224 -1.32349 113.808 -8.91274 112.71 -16.3926C112.385 -18.6125 113.889 -20.5913 116.028 -20.9103C118.167 -21.2292 120.132 -19.7751 120.459 -17.5472C120.468 -17.491 120.476 -17.4428 120.477 -17.3854L120.486 -17.3786Z"
            fill="url(#paint15_linear_153_180)" />
        <path
            d="M153.98 -51.2577C156.869 -40.9658 158.815 -30.4079 159.77 -19.7845C160.716 -9.15772 160.668 1.52431 159.63 12.0775C158.592 22.6307 156.561 33.0449 153.606 43.1356C150.642 53.2297 146.75 62.9902 141.997 72.2562C137.245 81.5223 131.642 90.2905 125.301 98.4067C118.95 106.526 111.858 113.984 104.144 120.645C96.4308 127.307 88.0991 133.182 79.3187 138.155C70.5187 143.135 61.2797 147.208 51.7695 150.35C61.1382 146.79 70.1536 142.316 78.6486 136.988C87.147 131.67 95.1152 125.501 102.41 118.611C109.715 111.717 116.347 104.103 122.193 95.9225C128.049 87.7384 133.125 78.9741 137.33 69.811C141.544 60.6444 144.892 51.0653 147.321 41.275C149.757 31.4711 151.27 21.4458 151.832 11.3698C152.393 1.29376 152.018 -8.81606 150.711 -18.7894C149.403 -28.7627 147.156 -38.5858 144.045 -48.1025C143.122 -50.927 144.643 -53.8755 147.365 -54.8058C150.087 -55.7361 152.981 -54.3064 153.907 -51.4718C153.931 -51.4004 153.952 -51.3392 153.966 -51.2644L153.98 -51.2577Z"
            fill="url(#paint16_linear_153_180)" />
        <path
            d="M170.367 111.667C163.282 122.575 155.187 132.773 146.231 142.059C137.263 151.337 127.439 159.691 116.932 166.98C106.424 174.269 95.2389 180.481 83.6015 185.54C71.9531 190.591 59.859 194.477 47.5205 197.137C35.182 199.796 22.6101 201.236 10.0377 201.444C-2.54596 201.645 -15.1237 200.604 -27.4759 198.331C-39.8281 196.058 -51.9614 192.566 -63.6311 187.926C-75.3232 183.273 -86.5406 177.479 -97.1246 170.689C-86.2723 177.013 -74.8694 182.274 -63.1051 186.356C-51.3475 190.449 -39.2397 193.357 -27.0172 195.042C-14.7836 196.735 -2.43525 197.205 9.79518 196.464C22.0367 195.73 34.1781 193.781 45.978 190.668C57.7891 187.563 69.2765 183.29 80.2128 177.956C91.1669 172.617 101.576 166.207 111.261 158.829C120.945 151.451 129.902 143.136 137.978 134.019C146.054 124.902 153.231 114.989 159.427 104.474C161.266 101.354 165.2 100.517 168.258 102.436C171.315 104.355 172.351 108.297 170.505 111.428C170.459 111.508 170.42 111.576 170.363 111.649L170.367 111.667Z"
            fill="url(#paint17_linear_153_180)" />
        <path
            d="M74.7329 239.427C59.8433 243.773 44.5553 246.651 29.1593 247.993C13.7581 249.32 -1.73624 249.106 -17.0569 247.357C-32.3775 245.609 -47.5097 242.323 -62.1848 237.608C-76.8651 232.878 -91.0737 226.714 -104.577 219.223C-118.079 211.731 -130.871 202.927 -142.728 192.987C-154.589 183.032 -165.499 171.935 -175.264 159.886C-185.028 147.836 -193.66 134.839 -200.989 121.157C-208.329 107.445 -214.359 93.0636 -219.042 78.2741C-213.754 92.8497 -207.146 106.889 -199.305 120.133C-191.479 133.382 -182.425 145.82 -172.335 157.224C-162.24 168.642 -151.108 179.027 -139.165 188.2C-127.217 197.389 -114.438 205.376 -101.092 212.016C-87.7402 218.671 -73.8018 223.989 -59.5693 227.885C-45.3169 231.791 -30.7557 234.27 -16.1336 235.273C-1.51139 236.276 13.1475 235.828 27.5959 233.931C42.0444 232.034 56.2626 228.679 70.025 223.979C74.1095 222.584 78.4063 224.982 79.7917 229.216C81.177 233.449 79.1417 237.917 75.0425 239.317C74.9393 239.354 74.8508 239.385 74.7425 239.406L74.7329 239.427Z"
            fill="url(#paint18_linear_153_180)" />
        <path
            d="M260.688 111.397C253.543 128.188 244.842 144.253 234.739 159.277C224.618 174.294 213.101 188.253 200.39 200.916C187.679 213.579 173.781 224.93 158.986 234.805C144.174 244.673 128.472 253.048 112.142 259.795C95.8118 266.542 78.8707 271.668 61.6356 275.098C44.3835 278.522 26.8437 280.234 9.32091 280.193C-8.20192 280.153 -25.7141 278.379 -42.8621 274.909C-60.044 271.426 -76.8448 266.254 -93.012 259.552C-76.587 265.545 -59.6579 269.937 -42.5128 272.615C-25.3739 275.311 -8.03607 276.287 9.16862 275.551C26.3903 274.821 43.4787 272.381 60.1168 268.302C76.7719 264.231 92.9998 258.51 108.482 251.274C123.98 244.045 138.756 235.289 152.522 225.21C166.311 215.121 179.096 203.692 190.654 191.112C202.212 178.532 212.546 164.843 221.479 150.271C230.412 135.699 237.919 120.255 243.935 104.229C245.721 99.4731 250.93 97.3368 255.59 99.2142C260.251 101.092 262.612 106.26 260.82 111.034C260.776 111.155 260.738 111.259 260.677 111.373L260.688 111.397Z"
            fill="url(#paint19_linear_153_180)" />
        <path
            d="M298.074 -162.362C307.609 -142.349 315.306 -121.437 320.999 -100.019C326.673 -78.5905 330.333 -56.6758 331.921 -34.6539C333.509 -12.6319 333.015 9.47769 330.516 31.2707C327.998 53.0745 323.465 74.5422 316.997 95.3192C310.528 116.096 302.143 136.172 292.019 155.188C281.875 174.215 269.981 192.162 256.535 208.711C243.089 225.26 228.101 240.43 211.876 253.918C195.615 267.427 178.135 279.243 159.773 289.251C177.699 278.439 194.579 265.886 210.094 251.777C225.62 237.687 239.76 222.052 252.27 205.191C264.798 188.32 275.695 170.224 284.784 151.262C293.891 132.288 301.199 112.418 306.582 92.0581C311.983 71.6869 315.467 50.795 316.995 29.8148C318.532 8.8043 318.104 -12.3139 315.708 -33.1789C313.312 -54.0438 308.989 -74.627 302.804 -94.5803C296.619 -114.534 288.564 -133.827 278.847 -152.167C275.964 -157.611 278.041 -164.225 283.286 -167.154C288.53 -170.082 294.956 -168.237 297.85 -162.774C297.924 -162.637 297.988 -162.519 298.044 -162.371L298.074 -162.362Z"
            fill="url(#paint20_linear_153_180)" />
        <path
            d="M222.83 297.404C204.183 311.366 184.249 323.481 163.4 333.498C142.537 343.496 120.776 351.381 98.4964 357.025C76.2165 362.668 53.4351 366.054 30.5822 367.196C7.71456 368.318 -15.2065 367.182 -37.8017 363.81C-60.3969 360.438 -82.6514 354.849 -104.162 347.173C-125.688 339.478 -146.453 329.682 -166.089 317.942C-185.726 306.202 -204.253 292.535 -221.297 277.219C-238.372 261.866 -253.949 244.884 -267.847 226.617C-253.211 244.265 -236.996 260.463 -219.453 274.893C-201.929 289.339 -183.092 301.999 -163.321 312.661C-143.535 323.341 -122.815 332.023 -101.564 338.578C-80.298 345.152 -58.4675 349.601 -36.5146 351.862C-14.5468 354.141 7.57627 354.234 29.4034 352.178C51.2633 350.126 72.8452 345.909 93.7784 339.589C114.712 333.269 134.975 324.896 154.224 314.602C173.472 304.308 191.674 292.09 208.57 278.226C213.585 274.113 220.782 275.206 224.823 280.411C228.864 285.616 228.241 292.958 223.209 297.086C223.082 297.192 222.974 297.283 222.834 297.37L222.83 297.404Z"
            fill="url(#paint21_linear_153_180)" />
        <path
            d="M336.987 265.76C320.186 287.254 301.399 307.07 280.97 324.813C260.518 342.539 238.44 358.17 215.12 371.441C191.799 384.712 167.253 395.601 141.966 403.99C116.657 412.362 90.624 418.21 64.2987 421.445C37.9734 424.679 11.3781 425.316 -14.9974 423.375C-41.3952 421.417 -67.5576 416.86 -93.0267 409.768C-118.496 402.675 -143.287 393.071 -166.902 381.153C-190.561 369.203 -213.021 354.955 -233.976 338.741C-212.376 354.029 -189.431 367.197 -165.519 377.966C-141.622 388.757 -116.779 397.132 -91.4758 402.97C-66.151 408.825 -40.3666 412.143 -14.612 412.905C11.1648 413.683 36.9496 411.897 62.2278 407.613C87.5282 403.345 112.36 396.572 136.228 387.474C160.133 378.371 183.091 366.92 204.702 353.307C226.313 339.694 246.57 323.981 265.124 306.424C283.678 288.867 300.492 269.473 315.359 248.635C319.771 242.451 328.162 241.442 334.224 246.037C340.285 250.632 341.746 259.079 337.318 265.286C337.208 265.444 337.113 265.579 336.981 265.721L336.987 265.76Z"
            fill="url(#paint22_linear_153_180)" />
        <path
            d="M452.896 174.823C441.648 204.023 427.693 232.075 411.275 258.43C394.828 284.775 375.927 309.393 354.905 331.866C333.884 354.339 310.751 374.636 285.997 392.461C261.213 410.275 234.818 425.587 207.251 438.149C179.685 450.712 150.976 460.534 121.665 467.472C92.3243 474.399 62.3903 478.411 32.3823 479.422C2.37429 480.432 -27.7174 478.471 -57.2852 473.584C-86.9117 468.677 -115.985 460.854 -144.063 450.37C-115.585 459.623 -86.3381 466.103 -56.8218 469.634C-27.3153 473.196 2.43104 473.799 31.8487 471.479C61.2957 469.169 90.4141 463.936 118.665 455.926C146.945 447.926 174.398 437.129 200.483 423.781C226.597 410.444 251.384 394.536 274.364 376.426C297.383 358.295 318.604 337.932 337.656 315.673C356.708 293.415 373.601 269.331 388.041 243.822C402.481 218.313 414.429 191.398 423.787 163.578C426.566 155.322 435.36 151.342 443.451 154.271C451.542 157.199 455.889 165.907 453.101 174.193C453.033 174.403 452.974 174.583 452.876 174.783L452.896 174.823Z"
            fill="url(#paint23_linear_153_180)" />
        <path
            d="M360.355 -409.829C385.156 -385.29 407.696 -358.373 427.52 -329.573C447.322 -300.746 464.382 -270.061 478.414 -238.05C492.446 -206.039 503.424 -172.726 511.25 -138.758C519.053 -104.764 523.677 -70.1385 525.054 -35.4564C526.431 -0.774318 524.582 33.9378 519.582 68.0449C514.559 102.179 506.358 135.684 495.105 167.974C483.851 200.263 469.572 231.359 452.561 260.636C435.504 289.966 415.739 317.452 393.7 342.732C414.663 316.496 433.147 288.247 448.773 258.439C464.424 228.655 477.195 197.34 486.889 165.113C496.604 132.858 503.242 99.6916 506.729 66.2472C510.238 32.776 510.592 -1.02292 507.819 -34.4715C505.068 -67.9468 499.186 -101.122 490.347 -133.329C481.504 -165.587 469.677 -196.9 455.055 -226.727C440.433 -256.555 423.091 -284.878 403.31 -311.213C383.53 -337.548 361.314 -361.844 337.128 -383.783C329.952 -390.295 329.54 -401.347 335.797 -408.671C342.055 -415.996 352.6 -416.853 359.804 -410.318C359.987 -410.155 360.145 -410.015 360.306 -409.825L360.355 -409.829Z"
            fill="url(#paint24_linear_153_180)" />
        <path
            d="M558.176 -185.808C568.652 -148.5 575.704 -110.227 579.167 -71.7177C582.595 -33.1955 582.421 5.52687 578.659 43.7823C574.897 82.0376 567.534 119.789 556.822 156.368C546.075 192.959 531.967 228.341 514.74 261.93C497.512 295.52 477.201 327.304 454.215 356.726C431.194 386.16 405.485 413.193 377.523 437.341C349.561 461.488 319.359 482.787 287.53 500.814C255.63 518.865 222.139 533.63 187.664 545.019C221.626 532.115 254.307 515.898 285.101 496.583C315.908 477.305 344.792 454.941 371.237 429.965C397.718 404.976 421.759 377.375 442.951 347.72C464.178 318.053 482.58 286.283 497.819 253.066C513.095 219.837 525.232 185.113 534.038 149.623C542.868 114.084 548.355 77.7422 550.389 41.2167C552.424 4.69117 551.066 -31.957 546.327 -68.1102C541.587 -104.263 533.442 -139.872 522.163 -174.37C518.817 -184.609 524.332 -195.297 534.199 -198.67C544.066 -202.042 554.555 -196.86 557.914 -186.584C558.001 -186.325 558.076 -186.104 558.128 -185.832L558.176 -185.808Z"
            fill="url(#paint25_linear_153_180)" />
        <path
            d="M595.858 254.622C579.527 293.001 559.639 329.721 536.545 364.061C513.412 398.387 487.088 430.293 458.035 459.237C428.981 488.182 397.213 514.126 363.396 536.697C329.54 559.252 293.65 578.395 256.324 593.817C218.998 609.239 180.276 620.955 140.881 628.796C101.448 636.622 61.3569 640.534 21.3048 640.443C-18.7474 640.351 -58.7753 636.295 -97.9707 628.364C-137.244 620.403 -175.645 608.582 -212.599 593.262C-175.056 606.961 -136.361 616.999 -97.1722 623.121C-57.9977 629.283 -18.3683 631.513 20.9567 629.831C60.3204 628.164 99.3797 622.585 137.41 613.263C175.478 603.956 212.571 590.882 247.958 574.342C283.383 557.818 317.156 537.804 348.621 514.767C380.138 491.705 409.362 465.581 435.78 436.828C462.198 408.074 485.82 376.785 506.238 343.477C526.656 310.17 543.816 274.87 557.566 238.238C561.647 227.368 573.553 222.485 584.206 226.776C594.858 231.067 600.256 242.882 596.16 253.792C596.059 254.069 595.973 254.306 595.834 254.568L595.858 254.622Z"
            fill="url(#paint26_linear_153_180)" />
        <path
            d="M-48.0567 -2.15505C-47.8955 -5.29001 -47.4427 -8.40281 -46.7044 -11.4334C-45.963 -14.4639 -44.936 -17.4091 -43.642 -20.2184C-42.3481 -23.0277 -40.787 -25.698 -38.9961 -28.1854C-37.2021 -30.6728 -35.1782 -32.9741 -32.9584 -35.0517C-30.7386 -37.1293 -28.3261 -38.9833 -25.7673 -40.5825C-23.2053 -42.1816 -20.4971 -43.5227 -17.689 -44.5811C-14.8809 -45.6395 -11.9731 -46.4182 -9.02425 -46.9022C-6.06925 -47.386 -3.07643 -47.5752 -0.0954414 -47.4795C-3.07617 -47.4454 -6.0439 -47.1231 -8.94592 -46.512C-11.8479 -45.9041 -14.6812 -45.0074 -17.3929 -43.8436C-20.1077 -42.6797 -22.7009 -41.2487 -25.1263 -39.5816C-27.5547 -37.9146 -29.8183 -36.0084 -31.8736 -33.9037C-33.932 -31.799 -35.7853 -29.4927 -37.3995 -27.035C-39.0168 -24.5742 -40.3949 -21.9589 -41.5091 -19.233C-42.6234 -16.5072 -43.4769 -13.6773 -44.0542 -10.7906C-44.6315 -7.90387 -44.9296 -4.96347 -44.9547 -2.02012C-44.9622 -1.14661 -45.6712 -0.48644 -46.5273 -0.505221C-47.3835 -0.524002 -48.0641 -1.2119 -48.0566 -2.08858C-48.0566 -2.11073 -48.0567 -2.12973 -48.0536 -2.15185L-48.0567 -2.15505Z"
            fill="url(#paint27_linear_153_180)" />
        <path
            d="M-53.5084 61.5034C-57.2698 57.8478 -60.6951 53.8326 -63.7154 49.5318C-66.7323 45.227 -69.3403 40.64 -71.4956 35.8507C-73.651 31.0614 -75.3497 26.0732 -76.5759 20.9833C-77.7988 15.8893 -78.5453 10.697 -78.8042 5.4925C-79.0631 0.288043 -78.8377 -4.92454 -78.138 -10.0498C-77.4351 -15.1792 -76.2539 -20.2178 -74.6125 -25.0773C-72.9712 -29.9367 -70.8736 -34.6204 -68.363 -39.0342C-65.8458 -43.4561 -62.9189 -47.6039 -59.6474 -51.4235C-62.7558 -47.4617 -65.4891 -43.2006 -67.7908 -38.7088C-70.0965 -34.2204 -71.9673 -29.5055 -73.3744 -24.657C-74.7849 -19.8046 -75.7319 -14.8186 -76.2052 -9.79443C-76.6818 -4.76625 -76.6842 0.307584 -76.2174 5.32531C-75.754 10.3471 -74.8209 15.3203 -73.4451 20.1449C-72.0686 24.977 -70.2455 29.664 -68.0049 34.125C-65.7643 38.5859 -63.1174 42.8179 -60.1073 46.7487C-57.0973 50.6796 -53.7246 54.3017 -50.0597 57.5677C-48.9721 58.5371 -48.8937 60.1956 -49.8224 61.3021C-50.7511 62.4086 -52.3334 62.5491 -53.4249 61.5762C-53.4528 61.552 -53.4766 61.5312 -53.5011 61.5028L-53.5084 61.5034Z"
            fill="url(#paint28_linear_153_180)" />
        <path
            d="M-95.6029 32.0498C-97.4546 25.644 -98.72 19.0692 -99.3693 12.4502C-100.013 5.8291 -100.038 -0.829819 -99.4457 -7.41178C-98.8538 -13.9937 -97.643 -20.4924 -95.8554 -26.7925C-94.0617 -33.0948 -91.6892 -39.1922 -88.7784 -44.9844C-85.8676 -50.7766 -82.4247 -56.2612 -78.5191 -61.342C-74.6075 -66.4249 -70.2309 -71.0976 -65.4634 -75.2761C-60.6959 -79.4546 -55.5395 -83.1454 -50.0992 -86.2749C-44.6467 -89.4087 -38.9164 -91.979 -33.0124 -93.9696C-38.8262 -91.7189 -44.4153 -88.8998 -49.6761 -85.5496C-54.9391 -82.2058 -59.8676 -78.3332 -64.3735 -74.0136C-68.8855 -69.6918 -72.9748 -64.9231 -76.5719 -59.8039C-80.1752 -54.6825 -83.2901 -49.202 -85.8601 -43.4759C-88.4362 -37.7476 -90.4712 -31.765 -91.9332 -25.6539C-93.3991 -19.5343 -94.2898 -13.2798 -94.5874 -6.99694C-94.885 -0.714059 -94.6 5.58675 -93.7348 11.7993C-92.8696 18.0119 -91.4204 24.1276 -89.4346 30.0495C-88.8455 31.807 -89.7775 33.6501 -91.4671 34.2392C-93.1567 34.8283 -94.9653 33.9469 -95.5566 32.183C-95.572 32.1386 -95.5853 32.1006 -95.5946 32.054L-95.6029 32.0498Z"
            fill="url(#paint29_linear_153_180)" />
        <path
            d="M-24.1215 121.317C-31.6842 119.481 -39.0785 116.916 -46.1606 113.665C-53.2414 110.406 -60.0023 106.463 -66.3278 101.905C-72.6534 97.347 -78.5359 92.1759 -83.8831 86.5057C-89.2291 80.8275 -94.032 74.6517 -98.2139 68.0815C-102.396 61.5114 -105.958 54.5547 -108.843 47.3434C-111.726 40.1243 -113.925 32.6521 -115.396 25.0557C-116.867 17.4593 -117.619 9.73743 -117.638 2.04614C-117.654 -5.66085 -116.938 -13.3294 -115.534 -20.8382C-116.622 -13.2709 -117.004 -5.60527 -116.658 2.0254C-116.319 9.65464 -115.251 17.2411 -113.485 24.6413C-111.721 32.0494 -109.259 39.2714 -106.156 46.1754C-103.055 53.0871 -99.3073 59.6901 -94.9949 65.856C-90.6838 72.0297 -85.8016 77.7756 -80.4572 82.9846C-75.1065 88.2028 -69.2859 92.8855 -63.0929 96.95C-56.8999 101.015 -50.3512 104.466 -43.5557 107.243C-36.7603 110.021 -29.7246 112.115 -22.5745 113.519C-20.4526 113.936 -19.1252 116.033 -19.5072 118.194C-19.8893 120.354 -21.8301 121.765 -23.9597 121.347C-24.0136 121.337 -24.0599 121.328 -24.1125 121.311L-24.1215 121.317Z"
            fill="url(#paint30_linear_153_180)" />
        <path
            d="M-5.33714 165.187C-15.5885 164.501 -25.7793 162.823 -35.713 160.178C-45.6467 157.522 -55.3129 153.899 -64.546 149.372C-73.7792 144.846 -82.5689 139.417 -90.7702 133.214C-98.9716 127 -106.574 120.012 -113.454 112.368C-120.333 104.723 -126.49 96.4329 -131.819 87.6558C-137.149 78.8681 -141.642 69.594 -145.214 59.9925C-148.787 50.3911 -151.45 40.4623 -153.151 30.4072C-154.852 20.3309 -155.591 10.139 -155.4 -0.000157291C-155.167 10.1438 -153.994 20.2563 -151.879 30.1578C-149.775 40.0591 -146.73 49.739 -142.816 59.0172C-138.903 68.3059 -134.121 77.1929 -128.575 85.5187C-123.029 93.8551 -116.707 101.641 -109.746 108.727C-102.784 115.824 -95.1724 122.231 -87.0754 127.832C-78.968 133.443 -70.3654 138.247 -61.4125 142.158C-52.4595 146.069 -43.1769 149.097 -33.7199 151.189C-24.2628 153.28 -14.6417 154.423 -5.02202 154.638C-2.16714 154.702 0.0189957 157.143 -0.00765301 160.055C-0.0343017 162.968 -2.2547 165.254 -5.11993 165.189C-5.19233 165.189 -5.25439 165.188 -5.32681 165.177L-5.33714 165.187Z"
            fill="url(#paint31_linear_153_180)" />
        <path
            d="M-157.882 127.444C-165.602 116.752 -172.341 105.327 -177.959 93.3815C-183.568 81.4276 -188.047 68.9639 -191.325 56.2065C-194.602 43.4491 -196.669 30.4082 -197.527 17.33C-198.375 4.2434 -198.006 -8.87023 -196.43 -21.7938C-194.853 -34.7175 -192.079 -47.4426 -188.172 -59.7392C-184.256 -72.0441 -179.198 -83.9101 -173.082 -95.1276C-166.966 -106.345 -159.8 -116.924 -151.73 -126.653C-143.64 -136.399 -134.657 -145.286 -124.963 -153.209C-134.315 -144.862 -142.87 -135.609 -150.458 -125.594C-158.054 -115.59 -164.674 -104.831 -170.208 -93.5352C-175.752 -82.2306 -180.209 -70.3885 -183.514 -58.2388C-186.829 -46.0807 -188.995 -33.5964 -189.979 -21.0385C-190.973 -8.47218 -190.788 4.18649 -189.448 16.6792C-188.11 29.1906 -185.609 41.5465 -181.981 53.5343C-178.354 65.5222 -173.627 77.13 -167.877 88.1604C-162.126 99.1908 -155.35 109.625 -147.701 119.315C-145.432 122.191 -145.944 126.307 -148.705 128.611C-151.467 130.915 -155.429 130.547 -157.707 127.661C-157.765 127.589 -157.815 127.527 -157.863 127.446L-157.882 127.444Z"
            fill="url(#paint32_linear_153_180)" />
        <path
            d="M-240.284 -10.7729C-239.478 -26.4476 -237.214 -42.0117 -233.522 -57.1646C-229.815 -72.3173 -224.68 -87.043 -218.211 -101.09C-211.741 -115.136 -203.936 -128.488 -194.981 -140.925C-186.011 -153.362 -175.891 -164.868 -164.792 -175.256C-153.694 -185.644 -141.631 -194.914 -128.837 -202.91C-116.027 -210.906 -102.486 -217.611 -88.4454 -222.903C-74.4051 -228.195 -59.8656 -232.089 -45.1216 -234.508C-30.3466 -236.928 -15.3825 -237.873 -0.477573 -237.395C-15.3812 -237.225 -30.2199 -235.613 -44.73 -232.558C-59.2401 -229.518 -73.4061 -225.035 -86.9646 -219.215C-100.539 -213.396 -113.505 -206.241 -125.632 -197.906C-137.774 -189.571 -149.092 -180.04 -159.368 -169.516C-169.66 -158.993 -178.927 -147.461 -186.998 -135.173C-195.084 -122.869 -201.975 -109.792 -207.546 -96.1629C-213.117 -82.5338 -217.385 -68.3842 -220.271 -53.9506C-223.158 -39.517 -224.648 -24.815 -224.774 -10.0982C-224.811 -5.73065 -228.356 -2.42982 -232.637 -2.52372C-236.918 -2.61763 -240.321 -6.05712 -240.283 -10.4405C-240.283 -10.5513 -240.284 -10.6462 -240.268 -10.7569L-240.284 -10.7729Z"
            fill="url(#paint33_linear_153_180)" />
        <path
            d="M-187.28 215.263C-200.445 202.469 -212.433 188.416 -223.004 173.363C-233.564 158.296 -242.692 142.242 -250.235 125.479C-257.779 108.716 -263.725 91.2578 -268.016 73.4429C-272.297 55.6139 -274.909 37.4409 -275.815 19.2253C-276.721 1.00966 -275.933 -17.2344 -273.484 -35.173C-271.023 -53.1257 -266.889 -70.7609 -261.145 -87.7689C-255.4 -104.777 -248.058 -121.17 -239.271 -136.618C-230.461 -152.095 -220.217 -166.612 -208.766 -179.981C-219.646 -166.115 -229.213 -151.2 -237.269 -135.479C-245.338 -119.77 -251.886 -103.268 -256.811 -86.2982C-261.748 -69.3144 -265.062 -51.8634 -266.719 -34.279C-268.387 -16.6804 -268.395 1.07805 -266.762 18.6401C-265.14 36.2163 -261.874 53.6225 -257.058 70.5086C-252.241 87.4211 -245.86 103.826 -238.018 119.439C-230.176 135.052 -220.912 149.864 -210.376 163.622C-199.841 177.38 -188.037 190.057 -175.21 201.488C-171.403 204.881 -171.129 210.686 -174.379 214.559C-177.629 218.431 -183.168 218.923 -186.988 215.518C-187.085 215.433 -187.169 215.361 -187.255 215.261L-187.28 215.263Z"
            fill="url(#paint34_linear_153_180)" />
        <path
            d="M47.1407 346.376C25.7436 348.688 4.13041 348.888 -17.2852 346.952C-38.7044 344.995 -59.9046 340.9 -80.5214 334.742C-101.138 328.585 -121.151 320.363 -140.215 310.293C-159.282 300.201 -177.38 288.257 -194.212 274.665C-211.044 261.072 -226.605 245.852 -240.627 229.303C-254.653 212.732 -267.119 194.829 -277.798 175.898C-288.476 156.968 -297.39 137.014 -304.362 116.441C-311.341 95.8234 -316.375 74.6096 -319.469 53.1657C-315.498 74.4642 -309.595 95.3513 -301.822 115.449C-294.071 135.55 -284.454 154.839 -273.183 172.963C-261.908 191.109 -248.979 208.091 -234.665 223.609C-220.348 239.149 -204.62 253.244 -187.811 265.63C-170.999 278.038 -153.081 288.755 -134.44 297.593C-115.774 306.449 -96.3627 313.423 -76.5359 318.386C-56.7092 323.349 -36.5057 326.33 -16.2647 327.272C3.97628 328.213 24.2297 327.096 44.1607 324.022C50.0758 323.111 55.4286 327.456 56.3759 333.605C57.3231 339.754 53.5264 345.387 47.5899 346.302C47.4402 346.327 47.3118 346.348 47.1584 346.35L47.1407 346.376Z"
            fill="url(#paint35_linear_153_180)" />
        <path
            d="M-344.171 115.381C-350.837 92.32 -355.392 68.6506 -357.73 44.8223C-360.046 20.9862 -360.136 -2.98593 -358.005 -26.681C-355.874 -50.3761 -351.515 -73.7712 -345.08 -96.4516C-338.623 -119.14 -330.082 -141.091 -319.603 -161.942C-309.124 -182.794 -296.729 -202.539 -282.669 -220.83C-268.587 -239.128 -252.832 -255.95 -235.669 -270.992C-218.506 -286.035 -199.943 -299.322 -180.358 -310.588C-160.729 -321.87 -140.1 -331.123 -118.845 -338.289C-139.775 -330.187 -159.896 -320.038 -178.834 -307.977C-197.781 -295.94 -215.524 -281.998 -231.745 -266.448C-247.988 -250.889 -262.71 -233.722 -275.659 -215.293C-288.631 -196.855 -299.845 -177.126 -309.097 -156.512C-318.371 -135.89 -325.697 -114.353 -330.96 -92.3527C-336.237 -70.322 -339.444 -47.8059 -340.515 -25.1876C-341.587 -2.56918 -340.56 20.1137 -337.446 42.4789C-334.331 64.8441 -329.114 86.8609 -321.965 108.18C-319.844 114.507 -323.2 121.142 -329.282 123.263C-335.365 125.383 -341.876 122.21 -344.004 115.86C-344.06 115.701 -344.107 115.564 -344.141 115.396L-344.171 115.381Z"
            fill="url(#paint36_linear_153_180)" />
        <path
            d="M-353.178 236.835C-367.432 212.996 -379.498 187.81 -389.125 161.749C-398.729 135.673 -405.878 108.744 -410.457 81.4307C-415.035 54.1171 -417.027 26.441 -416.481 -1.08291C-415.913 -28.6227 -412.791 -55.9871 -407.175 -82.7241C-401.558 -109.461 -393.468 -135.555 -383.084 -160.536C-372.677 -185.533 -359.959 -209.394 -345.141 -231.697C-330.323 -254 -313.419 -274.768 -294.775 -293.585C-276.086 -312.433 -255.68 -329.314 -233.959 -344.044C-255.041 -328.363 -274.614 -310.634 -292.3 -291.127C-310.001 -271.643 -325.793 -250.397 -339.406 -227.818C-353.041 -205.224 -364.498 -181.298 -373.597 -156.51C-382.718 -131.706 -389.489 -106 -393.8 -79.9153C-398.134 -53.815 -400.014 -27.2969 -399.446 -0.90605C-398.885 25.5238 -395.86 51.8495 -390.41 77.6199C-384.961 103.39 -377.141 128.575 -367.073 152.747C-357.006 176.918 -344.684 200.038 -330.401 221.767C-326.163 228.216 -327.974 236.73 -334.169 241.024C-340.365 245.318 -348.597 243.794 -352.85 237.322C-352.96 237.16 -353.053 237.021 -353.14 236.842L-353.178 236.835Z"
            fill="url(#paint37_linear_153_180)" />
        <path
            d="M-308.242 380.364C-331.539 359.258 -352.896 335.923 -371.884 310.787C-390.853 285.627 -407.428 258.685 -421.331 230.432C-435.234 202.179 -446.441 172.634 -454.837 142.376C-463.214 112.093 -468.755 81.1173 -471.375 49.9628C-473.996 18.8082 -473.715 -12.5002 -470.574 -43.3882C-467.414 -74.3012 -461.368 -104.774 -452.527 -134.272C-443.686 -163.77 -432.074 -192.313 -417.931 -219.327C-403.75 -246.392 -387.057 -271.902 -368.231 -295.517C-386.051 -271.084 -401.56 -244.937 -414.435 -217.5C-427.334 -190.083 -437.58 -161.402 -445.019 -132.021C-452.478 -102.614 -457.13 -72.5082 -458.935 -42.2761C-460.76 -12.019 -459.732 18.4089 -455.904 48.3985C-452.095 78.4131 -445.48 108.034 -436.242 136.669C-426.999 165.348 -415.108 193.059 -400.761 219.325C-386.414 245.591 -369.678 270.395 -350.828 293.314C-331.977 316.233 -311.016 337.223 -288.377 356.013C-281.659 361.59 -280.848 371.519 -286.187 378.356C-291.527 385.194 -300.983 386.38 -307.726 380.783C-307.898 380.643 -308.045 380.524 -308.198 380.359L-308.242 380.364Z"
            fill="url(#paint38_linear_153_180)" />
        <path
            d="M251.989 491.152C221.406 506.738 189.381 519.294 156.519 528.55C123.639 537.776 89.9515 543.685 56.0376 546.186C22.1237 548.687 -11.9862 547.762 -45.6665 543.541C-79.364 539.289 -112.602 531.723 -144.831 520.977C-177.061 510.23 -208.265 496.335 -237.886 479.582C-267.523 462.799 -295.548 443.141 -321.461 420.937C-347.374 398.733 -371.206 374 -392.479 347.242C-413.787 320.421 -432.519 291.607 -448.489 261.349C-431.292 290.892 -411.441 318.726 -389.23 344.321C-367.048 369.932 -342.523 393.274 -316.157 413.938C-289.774 434.634 -261.549 452.652 -232.042 467.7C-202.517 482.779 -171.662 494.902 -140.107 503.86C-108.534 512.848 -76.2147 518.685 -43.8164 521.306C-11.3709 523.941 21.1833 523.344 53.2893 519.508C85.3953 515.672 117.011 508.665 147.6 498.591C178.19 488.517 207.706 475.364 235.706 459.471C244.016 454.756 254.277 458.207 258.946 466.849C263.615 475.491 260.957 486.053 252.617 490.786C252.408 490.908 252.228 491.013 252.002 491.104L251.989 491.152Z"
            fill="url(#paint39_linear_153_180)" />
        <path
            d="M-19.3475 598.804C-56.5087 596.317 -93.4504 590.236 -129.46 580.647C-165.47 571.02 -200.51 557.884 -233.98 541.475C-267.45 525.067 -299.313 505.388 -329.043 482.901C-358.772 460.377 -386.332 435.046 -411.27 407.335C-436.208 379.624 -458.526 349.571 -477.846 317.754C-497.166 285.898 -513.452 252.279 -526.403 217.474C-539.353 182.669 -549.006 146.677 -555.173 110.227C-561.339 73.7011 -564.02 36.7553 -563.325 0.000825101C-562.482 36.7727 -558.228 73.4303 -550.562 109.323C-542.934 145.216 -531.895 180.305 -517.709 213.939C-503.523 247.61 -486.189 279.826 -466.084 310.007C-445.979 340.226 -423.065 368.45 -397.829 394.137C-372.594 419.862 -345 443.089 -315.649 463.391C-286.26 483.731 -255.075 501.146 -222.621 515.324C-190.166 529.501 -156.517 540.479 -122.235 548.06C-87.9532 555.64 -53.0767 559.785 -18.2052 560.563C-7.85627 560.795 0.0684779 569.645 -0.0281237 580.202C-0.124725 590.759 -8.17367 599.045 -18.5601 598.813C-18.8226 598.81 -19.0476 598.807 -19.3101 598.766L-19.3475 598.804Z"
            fill="url(#paint40_linear_153_180)" />
        <path
            d="M-428.069 492.031C-458.16 462.787 -485.562 430.665 -509.725 396.259C-533.86 361.82 -554.724 325.124 -571.967 286.81C-589.21 248.495 -602.799 208.59 -612.609 167.87C-622.392 127.118 -628.364 85.5799 -630.435 43.9442C-632.506 2.30855 -630.703 -39.3921 -625.106 -80.3946C-619.482 -121.429 -610.033 -161.738 -596.902 -200.614C-583.771 -239.489 -566.99 -276.959 -546.906 -312.269C-526.768 -347.644 -503.353 -380.827 -477.181 -411.384C-502.048 -379.69 -523.915 -345.6 -542.328 -309.666C-560.774 -273.759 -575.74 -236.04 -586.997 -197.252C-598.281 -158.432 -605.857 -118.544 -609.643 -78.3512C-613.456 -38.1258 -613.475 2.46489 -609.741 42.6067C-606.034 82.7809 -598.569 122.566 -587.562 161.163C-576.551 199.82 -561.966 237.316 -544.041 273.004C-526.116 308.692 -504.941 342.548 -480.86 373.994C-456.78 405.441 -429.799 434.418 -400.479 460.545C-391.779 468.301 -391.151 481.569 -398.581 490.421C-406.01 499.273 -418.669 500.397 -427.401 492.614C-427.624 492.42 -427.815 492.253 -428.011 492.027L-428.069 492.031Z"
            fill="url(#paint41_linear_153_180)" />
        <path
            d="M25.4345 -42.1238C28.0201 -40.4182 30.4436 -38.4586 32.657 -36.2804C34.8688 -34.0994 36.8678 -31.7014 38.6202 -29.1284C40.3725 -26.5553 41.8756 -23.8088 43.1103 -20.9443C44.3434 -18.077 45.3055 -15.0934 45.9812 -12.043C46.657 -8.99263 47.0479 -5.87834 47.1504 -2.75785C47.2514 0.365434 47.0612 3.49336 46.5816 6.57135C46.1021 9.64934 45.3358 12.679 44.2988 15.5991C43.2588 18.5249 41.9496 21.3384 40.4042 23.9996C41.8392 21.2741 43.0228 18.4171 43.9287 15.4763C44.8374 12.5369 45.4667 9.51653 45.8093 6.47363C46.1534 3.42794 46.2107 0.359759 45.9849 -2.67319C45.7606 -5.70894 45.2521 -8.71384 44.4726 -11.6283C43.6946 -14.5455 42.6445 -17.3766 41.3482 -20.0657C40.0509 -22.7592 38.5047 -25.3122 36.735 -27.6804C34.9654 -30.0486 32.9791 -32.2316 30.8089 -34.1919C28.6388 -36.1523 26.2858 -37.8855 23.7963 -39.3722C23.0575 -39.8135 22.8446 -40.7861 23.281 -41.5547C23.7175 -42.3233 24.6365 -42.5997 25.378 -42.1568C25.3968 -42.1458 25.413 -42.1364 25.4303 -42.1226L25.4345 -42.1238Z"
            fill="url(#paint42_linear_153_180)" />
        <path
            d="M-24.9234 -78.141C-19.9829 -79.7099 -14.9073 -80.7993 -9.79286 -81.384C-4.67671 -81.9638 0.473297 -82.0369 5.56842 -81.6037C10.6635 -81.1705 15.6989 -80.2291 20.585 -78.8133C25.4729 -77.3925 30.2066 -75.4954 34.7083 -73.1547C39.21 -70.814 43.4779 -68.0345 47.4368 -64.8725C51.3975 -61.7056 55.0444 -58.1542 58.312 -54.2784C61.5797 -50.4025 64.473 -46.204 66.9343 -41.7683C69.3991 -37.3226 71.4301 -32.6447 73.014 -27.8197C71.2296 -32.5686 69.0072 -37.1288 66.3766 -41.4156C63.7508 -45.7043 60.7186 -49.7146 57.3438 -53.3748C53.9673 -57.04 50.2483 -60.355 46.2619 -63.2638C42.2738 -66.1776 38.0116 -68.6883 33.5635 -70.7501C29.1137 -72.817 24.4713 -74.4381 19.7339 -75.5885C14.9898 -76.742 10.1457 -77.4229 5.28409 -77.6172C0.422501 -77.8115 -4.44858 -77.528 -9.24704 -76.7695C-14.0455 -76.011 -18.7647 -74.7745 -23.3299 -73.0995C-24.6848 -72.6026 -26.1173 -73.3522 -26.5857 -74.7328C-27.054 -76.1135 -26.3859 -77.6033 -25.0261 -78.1021C-24.9919 -78.115 -24.9625 -78.1262 -24.9265 -78.1342L-24.9234 -78.141Z"
            fill="url(#paint43_linear_153_180)" />
        <path
            d="M20.3023 -101.164C26.5901 -99.7526 32.7364 -97.7218 38.6216 -95.105C44.5057 -92.4814 50.1223 -89.2729 55.3756 -85.5363C60.6289 -81.7997 65.5124 -77.536 69.9496 -72.8401C74.3858 -68.1375 78.3693 -63.0037 81.8354 -57.5247C85.3014 -52.0458 88.2511 -46.2282 90.6369 -40.1826C93.0215 -34.1303 94.8358 -27.851 96.045 -21.4531C97.2542 -15.0552 97.8646 -8.53754 97.8652 -2.03205C97.8635 4.48676 97.2531 10.9868 96.0706 17.3647C96.9905 10.9433 97.3231 4.45195 97.0499 -1.99611C96.7832 -8.4431 95.9094 -14.8402 94.4549 -21.0667C93.0014 -27.2999 90.9672 -33.3625 88.3998 -39.1441C85.8334 -44.9323 82.7286 -50.4472 79.1532 -55.5818C75.5788 -60.723 71.5286 -65.4916 67.0928 -69.7974C62.6517 -74.1108 57.8188 -77.9625 52.6748 -81.2843C47.5308 -84.6061 42.0897 -87.4024 36.4421 -89.6242C30.7944 -91.846 24.9456 -93.4855 19.0002 -94.539C17.2358 -94.8519 16.1356 -96.6007 16.4577 -98.4353C16.7797 -100.27 18.397 -101.5 20.1678 -101.186C20.2126 -101.179 20.2511 -101.172 20.2948 -101.158L20.3023 -101.164Z"
            fill="url(#paint44_linear_153_180)" />
        <path
            d="M-89.6316 -81.834C-84.3569 -87.701 -78.553 -93.0537 -72.3268 -97.7846C-66.0947 -102.51 -59.4453 -106.608 -52.4943 -110.009C-45.5433 -113.41 -38.2957 -116.108 -30.8929 -118.077C-23.4841 -120.04 -15.925 -121.269 -8.34112 -121.745C-0.757221 -122.22 6.84558 -121.947 14.3281 -120.939C21.8165 -119.927 29.1796 -118.174 36.2882 -115.707C43.3968 -113.24 50.2558 -110.065 56.7273 -106.248C63.2107 -102.421 69.3007 -97.9562 74.917 -92.9543C69.0957 -97.7021 62.8435 -101.866 56.2612 -105.359C49.684 -108.858 42.7827 -111.682 35.6936 -113.787C28.5985 -115.897 21.3155 -117.289 13.9838 -117.948C6.64623 -118.612 -0.751032 -118.542 -8.05966 -117.749C-15.3742 -116.96 -22.6111 -115.445 -29.625 -113.249C-36.6497 -111.052 -43.4564 -108.166 -49.9275 -104.638C-56.3985 -101.11 -62.5298 -96.9573 -68.2168 -92.2475C-73.9037 -87.5378 -79.1352 -82.2721 -83.8434 -76.5598C-85.2408 -74.8646 -87.6576 -74.7195 -89.2843 -76.139C-90.9111 -77.5585 -91.139 -80.0025 -89.7366 -81.7038C-89.7016 -81.7472 -89.6716 -81.7844 -89.6307 -81.8227L-89.6316 -81.834Z"
            fill="url(#paint45_linear_153_180)" />
        <path
            d="M-136.325 -85.8539C-130.714 -94.8311 -124.289 -103.261 -117.168 -110.975C-110.038 -118.685 -102.216 -125.67 -93.8395 -131.813C-85.463 -137.956 -76.5367 -143.247 -67.2409 -147.619C-57.9361 -151.985 -48.267 -155.423 -38.3943 -157.877C-28.5217 -160.331 -18.4544 -161.806 -8.37911 -162.288C1.7052 -162.765 11.7925 -162.24 21.7066 -160.715C31.6208 -159.19 41.367 -156.676 50.7489 -153.225C60.1487 -149.763 69.1751 -145.37 77.7 -140.156C68.963 -144.987 59.7911 -148.946 50.337 -151.945C40.8881 -154.953 31.166 -156.996 21.3594 -158.05C11.5439 -159.11 1.64396 -159.18 -8.15393 -158.277C-17.9608 -157.379 -27.6798 -155.503 -37.118 -152.697C-46.5652 -149.896 -55.7457 -146.162 -64.478 -141.585C-73.2244 -137.005 -81.5278 -131.573 -89.244 -125.379C-96.9601 -119.185 -104.088 -112.252 -110.504 -104.696C-116.92 -97.1388 -122.611 -88.9617 -127.512 -80.3244C-128.967 -77.7612 -132.115 -76.9875 -134.577 -78.4591C-137.04 -79.9308 -137.894 -83.0852 -136.434 -85.6577C-136.398 -85.7231 -136.367 -85.7792 -136.321 -85.8394L-136.325 -85.8539Z"
            fill="url(#paint46_linear_153_180)" />
        <path
            d="M-28.2136 -203.739C-15.3749 -205.388 -2.4095 -205.793 10.4344 -204.937C23.2804 -204.067 35.9921 -201.934 48.351 -198.576C60.71 -195.218 72.7033 -190.634 84.1253 -184.947C95.5495 -179.246 106.389 -172.441 116.467 -164.646C126.545 -156.851 135.859 -148.079 144.248 -138.503C152.639 -128.913 160.092 -118.517 166.471 -107.491C172.851 -96.4652 178.17 -84.8118 182.324 -72.7676C186.482 -60.6971 189.472 -48.2489 191.299 -35.6391C188.946 -48.1515 185.434 -60.3954 180.799 -72.1485C176.177 -83.9041 170.435 -95.1558 163.699 -105.698C156.961 -116.254 149.228 -126.1 140.663 -135.064C132.096 -144.041 122.681 -152.148 112.615 -159.231C102.547 -166.327 91.8138 -172.411 80.6437 -177.377C69.4586 -182.353 57.8242 -186.209 45.9376 -188.873C34.051 -191.537 21.9356 -193.027 9.79499 -193.313C-2.34567 -193.598 -14.4966 -192.67 -26.4569 -190.591C-30.0064 -189.975 -33.2114 -192.467 -33.7712 -196.082C-34.3309 -199.697 -32.0456 -203.07 -28.4832 -203.689C-28.3933 -203.706 -28.3163 -203.72 -28.2242 -203.724L-28.2136 -203.739Z"
            fill="url(#paint47_linear_153_180)" />
        <path
            d="M127.172 -210.617C140.1 -202.089 152.217 -192.291 163.284 -181.4C174.343 -170.495 184.338 -158.505 193.1 -145.64C201.862 -132.775 209.378 -119.042 215.551 -104.719C221.717 -90.383 226.527 -75.4648 229.906 -60.213C233.284 -44.9611 235.239 -29.3897 235.752 -13.7873C236.256 1.8292 235.306 17.4688 232.908 32.8588C230.51 48.2487 226.679 63.3968 221.494 77.9977C216.293 92.6266 209.748 106.694 202.02 120C209.195 106.373 215.114 92.0877 219.643 77.3833C224.186 62.6867 227.333 47.5847 229.046 32.3702C230.766 17.1417 231.053 1.80081 229.924 -13.3639C228.803 -28.5427 226.26 -43.5672 222.362 -58.1393C218.472 -72.7254 213.222 -86.8809 206.741 -100.326C200.254 -113.794 192.523 -126.559 183.675 -138.4C174.826 -150.241 164.895 -161.156 154.044 -170.958C143.193 -180.759 131.429 -189.426 118.981 -196.859C115.287 -199.066 114.222 -203.929 116.405 -207.772C118.587 -211.614 123.182 -212.996 126.889 -210.782C126.984 -210.727 127.064 -210.68 127.151 -210.611L127.172 -210.617Z"
            fill="url(#paint48_linear_153_180)" />
        <path
            d="M-87.2319 -273.492C-69.9402 -278.983 -52.1754 -282.796 -34.275 -284.843C-16.3685 -286.872 1.65654 -287.128 19.4895 -285.612C37.3224 -284.095 54.9461 -280.8 72.0475 -275.845C89.1551 -270.872 105.723 -264.233 121.479 -256.04C137.235 -247.847 152.173 -238.119 166.029 -227.052C179.891 -215.968 192.655 -203.538 204.092 -189.973C215.529 -176.407 225.655 -161.713 234.27 -146.188C242.897 -130.628 250.005 -114.255 255.549 -97.3677C249.304 -113.989 241.525 -129.95 232.318 -144.953C223.128 -159.964 212.515 -174 200.703 -186.81C188.885 -199.638 175.869 -211.241 161.917 -221.422C147.958 -231.62 133.041 -240.408 117.472 -247.624C101.898 -254.858 85.6497 -260.532 69.0686 -264.558C52.4642 -268.596 35.5099 -270.979 18.4943 -271.659C1.47874 -272.339 -15.57 -271.346 -32.3646 -268.692C-49.1592 -266.037 -65.6764 -261.709 -81.6547 -255.847C-86.3968 -254.108 -91.4107 -256.731 -93.0498 -261.563C-94.6889 -266.396 -92.3505 -271.61 -87.5913 -273.356C-87.4715 -273.401 -87.3688 -273.44 -87.2429 -273.468L-87.2319 -273.492Z"
            fill="url(#paint49_linear_153_180)" />
        <path
            d="M-311.039 -124.943C-302.655 -145.543 -292.4 -165.325 -280.455 -183.9C-268.49 -202.467 -254.842 -219.807 -239.752 -235.623C-224.661 -251.44 -208.135 -265.713 -190.521 -278.233C-172.887 -290.746 -154.171 -301.486 -134.687 -310.279C-115.204 -319.071 -94.9716 -325.925 -74.3703 -330.737C-53.7488 -335.542 -32.7654 -338.285 -11.7844 -338.906C9.19648 -339.527 30.1823 -338.049 50.7492 -334.504C71.3569 -330.944 91.5253 -325.326 110.951 -317.83C91.2239 -324.457 70.9097 -329.127 50.3542 -331.714C29.8061 -334.322 9.03714 -334.84 -11.555 -333.291C-32.1675 -331.75 -52.6031 -328.141 -72.4829 -322.568C-92.3831 -317.001 -111.755 -309.456 -130.218 -300.104C-148.702 -290.759 -166.305 -279.593 -182.684 -266.865C-199.092 -254.123 -214.284 -239.798 -227.995 -224.126C-241.705 -208.455 -253.941 -191.487 -264.488 -173.504C-275.036 -155.521 -283.868 -136.537 -290.908 -116.905C-292.998 -111.079 -299.213 -108.294 -304.812 -110.388C-310.411 -112.483 -313.291 -118.65 -311.194 -124.498C-311.142 -124.646 -311.098 -124.773 -311.026 -124.914L-311.039 -124.943Z"
            fill="url(#paint50_linear_153_180)" />
        <path
            d="M73.0884 -364.189C95.7246 -359.108 117.851 -351.797 139.038 -342.377C160.221 -332.932 180.44 -321.381 199.352 -307.929C218.264 -294.478 235.845 -279.128 251.819 -262.223C267.789 -245.294 282.13 -226.812 294.607 -207.088C307.085 -187.364 317.704 -166.42 326.293 -144.656C334.878 -122.868 341.409 -100.262 345.762 -77.2299C350.115 -54.1974 352.313 -30.7339 352.315 -7.31418C352.309 16.1535 350.111 39.5536 345.854 62.514C349.166 39.397 350.364 16.0282 349.38 -7.18479C348.42 -30.394 345.274 -53.4234 340.038 -75.8389C334.805 -98.2783 327.482 -120.104 318.239 -140.917C309.001 -161.755 297.823 -181.609 284.952 -200.093C272.084 -218.602 257.503 -235.769 241.534 -251.269C225.546 -266.798 208.148 -280.664 189.629 -292.622C171.111 -304.581 151.523 -314.648 131.192 -322.646C110.86 -330.644 89.8042 -336.547 68.4007 -340.339C62.0489 -341.466 58.0884 -347.761 59.2477 -354.366C60.407 -360.971 66.2293 -365.399 72.6042 -364.269C72.7656 -364.242 72.904 -364.219 73.0614 -364.169L73.0884 -364.189Z"
            fill="url(#paint51_linear_153_180)" />
        <path
            d="M-22.6278 -431.882C4.55198 -432.902 31.7709 -431.295 58.5057 -427.067C85.2427 -422.811 111.468 -415.932 136.733 -406.556C161.997 -397.181 186.273 -385.305 209.152 -371.228C232.034 -357.123 253.491 -340.814 273.172 -322.575C292.854 -304.337 310.758 -284.198 326.578 -262.548C342.401 -240.871 356.114 -217.682 367.465 -193.377C378.815 -169.071 387.832 -143.653 394.338 -117.636C400.847 -91.5644 404.843 -64.9223 406.372 -38.1624C403.723 -64.818 398.598 -91.1309 391.033 -116.629C383.495 -142.129 373.519 -166.786 361.334 -190.146C349.147 -213.534 334.75 -235.623 318.448 -256.024C302.145 -276.453 283.908 -295.217 264.122 -311.962C244.334 -328.735 222.969 -343.513 200.486 -356.032C177.973 -368.575 154.316 -378.857 129.915 -386.689C105.513 -394.522 80.4185 -399.938 55.0522 -402.838C29.6858 -405.738 4.07692 -406.096 -21.3419 -404.007C-28.8857 -403.389 -35.1424 -409.216 -35.6566 -416.895C-36.1707 -424.573 -30.7723 -431.207 -23.2012 -431.828C-23.0101 -431.846 -22.8462 -431.862 -22.6529 -431.852L-22.6278 -431.882Z"
            fill="url(#paint52_linear_153_180)" />
        <path
            d="M-165.436 -463.091C-136.134 -473.566 -105.922 -481.196 -75.3734 -485.809C-44.8134 -490.392 -13.9456 -491.946 16.6975 -490.452C47.3407 -488.959 77.7304 -484.406 107.323 -476.977C136.927 -469.519 165.706 -459.172 193.184 -446.115C220.663 -433.059 246.83 -417.321 271.223 -399.224C295.628 -381.097 318.231 -360.599 338.626 -338.072C359.021 -315.546 377.238 -291.005 392.914 -264.948C408.613 -238.832 421.758 -211.23 432.253 -182.649C420.571 -210.73 406.303 -237.585 389.642 -262.713C373.011 -287.853 353.999 -311.236 333.006 -332.446C312.002 -353.686 289.015 -372.753 264.51 -389.326C239.993 -405.93 213.915 -420.057 186.816 -431.453C159.705 -442.879 131.532 -451.592 102.885 -457.462C74.1981 -463.349 45.0092 -466.381 15.8158 -466.493C-13.3777 -466.605 -42.5293 -463.851 -71.1474 -458.265C-99.7655 -452.679 -127.81 -444.244 -154.84 -433.215C-162.862 -429.943 -171.607 -434.126 -174.701 -442.301C-177.794 -450.475 -174.095 -459.551 -166.044 -462.835C-165.842 -462.921 -165.668 -462.994 -165.454 -463.05L-165.436 -463.091Z"
            fill="url(#paint53_linear_153_180)" />
        <path
            d="M-534.82 -18.1435C-532.889 -53.008 -527.72 -87.6967 -519.383 -121.541C-511.011 -155.385 -499.471 -188.35 -484.97 -219.87C-470.47 -251.39 -453.01 -281.43 -433.004 -309.494C-412.963 -337.558 -390.377 -363.61 -365.625 -387.225C-340.873 -410.84 -313.989 -432.016 -285.492 -450.398C-256.96 -468.779 -226.815 -484.331 -195.574 -496.764C-164.332 -509.198 -131.994 -518.55 -99.2146 -524.637C-66.3663 -530.724 -33.1112 -533.546 -0.000216445 -533.202C-33.1141 -532.104 -66.0965 -527.809 -98.3619 -520.321C-130.627 -512.869 -162.141 -502.225 -192.317 -488.643C-222.527 -475.06 -251.399 -458.538 -278.416 -439.434C-305.468 -420.33 -330.698 -398.609 -353.625 -374.733C-376.586 -350.856 -397.277 -324.789 -415.319 -297.098C-433.395 -269.372 -448.821 -239.987 -461.321 -209.438C-473.821 -178.889 -483.428 -147.246 -489.971 -115.039C-496.513 -82.8314 -499.956 -50.0953 -500.366 -17.392C-500.489 -7.68653 -508.394 -0.182026 -517.904 -0.184365C-527.414 -0.186704 -534.945 -7.66443 -534.822 -17.4051C-534.821 -17.6512 -534.821 -17.8622 -534.786 -18.1087L-534.82 -18.1435Z"
            fill="url(#paint54_linear_153_180)" />
        <path
            d="M-494.179 -311.219C-473.837 -343.761 -450.548 -374.318 -424.734 -402.284C-398.887 -430.23 -370.533 -455.552 -340.168 -477.82C-309.803 -500.088 -277.446 -519.269 -243.748 -535.117C-210.018 -550.945 -174.968 -563.406 -139.179 -572.302C-103.391 -581.197 -66.8973 -586.546 -30.3742 -588.294C6.1814 -590.023 42.7478 -588.117 78.6866 -582.591C114.625 -577.064 149.956 -567.949 183.965 -555.439C218.039 -542.89 250.76 -526.964 281.663 -508.065C249.991 -525.575 216.743 -539.927 182.472 -550.798C148.219 -561.704 112.977 -569.11 77.4279 -572.931C41.8466 -576.772 5.9594 -577.027 -29.558 -573.753C-65.1079 -570.497 -100.339 -563.696 -134.553 -553.525C-168.799 -543.372 -202.078 -529.835 -233.733 -513.245C-265.438 -496.641 -295.538 -476.951 -323.509 -454.497C-351.48 -432.044 -377.317 -406.913 -400.577 -379.52C-423.836 -352.127 -444.466 -322.485 -462.231 -291.174C-467.505 -281.883 -478.915 -279.078 -487.842 -284.413C-496.769 -289.748 -499.865 -301.182 -494.572 -310.508C-494.441 -310.745 -494.329 -310.948 -494.165 -311.166L-494.179 -311.219Z"
            fill="url(#paint55_linear_153_180)" />
        <path
            d="M-199.387 -625.124C-159.863 -637.675 -119.258 -646.391 -78.3427 -651.068C-37.4135 -655.706 3.7865 -656.292 44.5475 -652.826C85.3085 -649.36 125.591 -641.829 164.68 -630.502C203.783 -619.136 241.653 -603.96 277.667 -585.234C313.68 -566.508 347.823 -544.272 379.495 -518.976C411.18 -493.641 440.355 -465.23 466.496 -434.223C492.637 -403.216 515.784 -369.628 535.474 -334.143C555.193 -298.577 571.441 -261.154 584.112 -222.554C569.837 -260.545 552.058 -297.027 531.013 -331.321C510.007 -365.631 485.749 -397.713 458.75 -426.994C431.738 -456.316 401.986 -482.836 370.095 -506.107C338.19 -529.417 304.093 -549.502 268.509 -565.997C232.91 -582.532 195.771 -595.501 157.871 -604.704C119.918 -613.932 81.1656 -619.379 42.2729 -620.934C3.38013 -622.488 -35.5885 -620.22 -73.9762 -614.152C-112.364 -608.084 -150.117 -598.192 -186.639 -584.792C-197.478 -580.817 -208.938 -586.814 -212.685 -597.859C-216.432 -608.904 -211.087 -620.822 -200.209 -624.813C-199.935 -624.917 -199.7 -625.006 -199.412 -625.07L-199.387 -625.124Z"
            fill="url(#paint56_linear_153_180)" />
    </g>
    <defs>
        <radialGradient id="paint0_radial_153_180" cx="0" cy="0" r="1" gradientUnits="userSpaceOnUse"
            gradientTransform="translate(0 -0.000366211) scale(518 533.333)">
            <stop stop-color="white" />
            <stop offset="1" stop-color="#FFB514" />
        </radialGradient>
        <radialGradient id="paint1_radial_153_180" cx="0" cy="0" r="1" gradientUnits="userSpaceOnUse"
            gradientTransform="translate(6.10352e-05 -0.000366211) scale(466.2 480)">
            <stop stop-color="white" />
            <stop offset="1" stop-color="#FFB514" />
        </radialGradient>
        <radialGradient id="paint2_radial_153_180" cx="0" cy="0" r="1" gradientUnits="userSpaceOnUse"
            gradientTransform="translate(-6.10352e-05 -0.000335693) scale(440.3 453.333)">
            <stop stop-color="white" />
            <stop offset="1" stop-color="#FFB514" />
        </radialGradient>
        <radialGradient id="paint3_radial_153_180" cx="0" cy="0" r="1" gradientUnits="userSpaceOnUse"
            gradientTransform="translate(0.00012207 -0.000366211) scale(427.609 440.267)">
            <stop stop-color="white" />
            <stop offset="1" stop-color="#FFB514" />
        </radialGradient>
        <radialGradient id="paint4_radial_153_180" cx="0" cy="0" r="1" gradientUnits="userSpaceOnUse"
            gradientTransform="translate(-6.10352e-05 -0.000366211) scale(375.55 386.667)">
            <stop stop-color="white" />
            <stop offset="1" stop-color="#FFB514" />
        </radialGradient>
        <radialGradient id="paint5_radial_153_180" cx="0" cy="0" r="1" gradientUnits="userSpaceOnUse"
            gradientTransform="translate(0 -0.000335693) scale(323.75 333.333)">
            <stop stop-color="white" />
            <stop offset="1" stop-color="#FFB514" />
        </radialGradient>
        <radialGradient id="paint6_radial_153_180" cx="0" cy="0" r="1" gradientUnits="userSpaceOnUse"
            gradientTransform="translate(6.10352e-05 -0.000366211) scale(304.325 313.333)">
            <stop stop-color="white" />
            <stop offset="1" stop-color="#FFB514" />
        </radialGradient>
        <radialGradient id="paint7_radial_153_180" cx="0" cy="0" r="1" gradientUnits="userSpaceOnUse"
            gradientTransform="translate(3.05176e-05 -0.000366211) scale(233.1 240)">
            <stop stop-color="white" />
            <stop offset="1" stop-color="#FFB514" />
        </radialGradient>
        <radialGradient id="paint8_radial_153_180" cx="0" cy="0" r="1" gradientUnits="userSpaceOnUse"
            gradientTransform="translate(0 -0.000366211) scale(194.25 200)">
            <stop stop-color="white" />
            <stop offset="1" stop-color="#FFB514" />
        </radialGradient>
        <radialGradient id="paint9_radial_153_180" cx="0" cy="0" r="1" gradientUnits="userSpaceOnUse"
            gradientTransform="translate(0 -0.000396729) scale(129.5 133.333)">
            <stop stop-color="white" />
            <stop offset="1" stop-color="#FFB514" />
        </radialGradient>
        <radialGradient id="paint10_radial_153_180" cx="0" cy="0" r="1" gradientUnits="userSpaceOnUse"
            gradientTransform="translate(-3.8147e-05 -0.000350952) scale(98.42 101.333)">
            <stop stop-color="white" />
            <stop offset="1" stop-color="#FFB514" />
        </radialGradient>
        <radialGradient id="paint11_radial_153_180" cx="0" cy="0" r="1" gradientUnits="userSpaceOnUse"
            gradientTransform="translate(0 -0.000320435) scale(64.75 66.6667)">
            <stop stop-color="white" />
            <stop offset="1" stop-color="#FFB514" />
        </radialGradient>
        <linearGradient id="paint12_linear_153_180" x1="-21.6944" y1="7.82695" x2="-5.00586" y2="54.9747"
            gradientUnits="userSpaceOnUse">
            <stop stop-color="#FFDA8A" />
            <stop offset="1" stop-color="#FFB514" />
        </linearGradient>
        <linearGradient id="paint13_linear_153_180" x1="-13.1047" y1="37.0784" x2="62.6248" y2="64.5894"
            gradientUnits="userSpaceOnUse">
            <stop stop-color="#FFDA8A" />
            <stop offset="1" stop-color="#FFB514" />
        </linearGradient>
        <linearGradient id="paint14_linear_153_180" x1="-36.8844" y1="31.4742" x2="29.134" y2="110.167"
            gradientUnits="userSpaceOnUse">
            <stop stop-color="#FFDA8A" />
            <stop offset="1" stop-color="#FFB514" />
        </linearGradient>
        <linearGradient id="paint15_linear_153_180" x1="9.47487" y1="57.9546" x2="129.432" y2="39.0815"
            gradientUnits="userSpaceOnUse">
            <stop stop-color="#FFDA8A" />
            <stop offset="1" stop-color="#FFB514" />
        </linearGradient>
        <linearGradient id="paint16_linear_153_180" x1="25.8848" y1="73.8826" x2="178.896" y2="22.0873"
            gradientUnits="userSpaceOnUse">
            <stop stop-color="#FFDA8A" />
            <stop offset="1" stop-color="#FFB514" />
        </linearGradient>
        <linearGradient id="paint17_linear_153_180" x1="-48.0559" y1="85.3442" x2="127.568" y2="186.318"
            gradientUnits="userSpaceOnUse">
            <stop stop-color="#FFDA8A" />
            <stop offset="1" stop-color="#FFB514" />
        </linearGradient>
        <linearGradient id="paint18_linear_153_180" x1="-108.472" y1="39.1368" x2="-25.0298" y2="274.876"
            gradientUnits="userSpaceOnUse">
            <stop stop-color="#FFDA8A" />
            <stop offset="1" stop-color="#FFB514" />
        </linearGradient>
        <linearGradient id="paint19_linear_153_180" x1="-45.8669" y1="129.776" x2="219.187" y2="226.064"
            gradientUnits="userSpaceOnUse">
            <stop stop-color="#FFDA8A" />
            <stop offset="1" stop-color="#FFB514" />
        </linearGradient>
        <linearGradient id="paint20_linear_153_180" x1="79.8867" y1="142.215" x2="376.265" y2="-18.8114"
            gradientUnits="userSpaceOnUse">
            <stop stop-color="#FFDA8A" />
            <stop offset="1" stop-color="#FFB514" />
        </linearGradient>
        <linearGradient id="paint21_linear_153_180" x1="-132.784" y1="113.308" x2="104.882" y2="396.604"
            gradientUnits="userSpaceOnUse">
            <stop stop-color="#FFDA8A" />
            <stop offset="1" stop-color="#FFB514" />
        </linearGradient>
        <linearGradient id="paint22_linear_153_180" x1="-115.869" y1="169.37" x2="234.23" y2="413.503"
            gradientUnits="userSpaceOnUse">
            <stop stop-color="#FFDA8A" />
            <stop offset="1" stop-color="#FFB514" />
        </linearGradient>
        <linearGradient id="paint23_linear_153_180" x1="-70.9605" y1="225.185" x2="388.399" y2="374.308"
            gradientUnits="userSpaceOnUse">
            <stop stop-color="#FFDA8A" />
            <stop offset="1" stop-color="#FFB514" />
        </linearGradient>
        <linearGradient id="paint24_linear_153_180" x1="196.85" y1="167.968" x2="555.969" y2="-236.535"
            gradientUnits="userSpaceOnUse">
            <stop stop-color="#FFDA8A" />
            <stop offset="1" stop-color="#FFB514" />
        </linearGradient>
        <linearGradient id="paint25_linear_153_180" x1="93.8322" y1="267.826" x2="648.496" y2="80.0677"
            gradientUnits="userSpaceOnUse">
            <stop stop-color="#FFDA8A" />
            <stop offset="1" stop-color="#FFB514" />
        </linearGradient>
        <linearGradient id="paint26_linear_153_180" x1="-104.839" y1="296.631" x2="500.998" y2="516.719"
            gradientUnits="userSpaceOnUse">
            <stop stop-color="#FFDA8A" />
            <stop offset="1" stop-color="#FFB514" />
        </linearGradient>
        <linearGradient id="paint27_linear_153_180" x1="-0.0476598" y1="-23.7401" x2="-48.1248" y2="-23.6433"
            gradientUnits="userSpaceOnUse">
            <stop stop-color="#FFDA8A" />
            <stop offset="1" stop-color="#FFB514" />
        </linearGradient>
        <linearGradient id="paint28_linear_153_180" x1="-29.8236" y1="-25.4112" x2="-83.1384" y2="35.7157"
            gradientUnits="userSpaceOnUse">
            <stop stop-color="#FFDA8A" />
            <stop offset="1" stop-color="#FFB514" />
        </linearGradient>
        <linearGradient id="paint29_linear_153_180" x1="-16.5061" y1="-46.3903" x2="-111.444" y2="-13.4542"
            gradientUnits="userSpaceOnUse">
            <stop stop-color="#FFDA8A" />
            <stop offset="1" stop-color="#FFB514" />
        </linearGradient>
        <linearGradient id="paint30_linear_153_180" x1="-57.7671" y1="-10.1466" x2="-80.1898" y2="111.005"
            gradientUnits="userSpaceOnUse">
            <stop stop-color="#FFDA8A" />
            <stop offset="1" stop-color="#FFB514" />
        </linearGradient>
        <linearGradient id="paint31_linear_153_180" x1="-77.8228" y1="0.879467" x2="-79.6773" y2="164.428"
            gradientUnits="userSpaceOnUse">
            <stop stop-color="#FFDA8A" />
            <stop offset="1" stop-color="#FFB514" />
        </linearGradient>
        <linearGradient id="paint32_linear_153_180" x1="-62.4814" y1="-75.7476" x2="-219.653" y2="51.0294"
            gradientUnits="userSpaceOnUse">
            <stop stop-color="#FFDA8A" />
            <stop offset="1" stop-color="#FFB514" />
        </linearGradient>
        <linearGradient id="paint33_linear_153_180" x1="-0.238665" y1="-118.698" x2="-240.624" y2="-118.214"
            gradientUnits="userSpaceOnUse">
            <stop stop-color="#FFDA8A" />
            <stop offset="1" stop-color="#FFB514" />
        </linearGradient>
        <linearGradient id="paint34_linear_153_180" x1="-104.383" y1="-88.9377" x2="-290.985" y2="125.007"
            gradientUnits="userSpaceOnUse">
            <stop stop-color="#FFDA8A" />
            <stop offset="1" stop-color="#FFB514" />
        </linearGradient>
        <linearGradient id="paint35_linear_153_180" x1="-159.031" y1="26.5826" x2="-101.921" y2="371.257"
            gradientUnits="userSpaceOnUse">
            <stop stop-color="#FFDA8A" />
            <stop offset="1" stop-color="#FFB514" />
        </linearGradient>
        <linearGradient id="paint36_linear_153_180" x1="-59.4225" y1="-167.004" x2="-401.199" y2="-48.4338"
            gradientUnits="userSpaceOnUse">
            <stop stop-color="#FFDA8A" />
            <stop offset="1" stop-color="#FFB514" />
        </linearGradient>
        <linearGradient id="paint37_linear_153_180" x1="-116.979" y1="-170.088" x2="-468.24" y2="66.1233"
            gradientUnits="userSpaceOnUse">
            <stop stop-color="#FFDA8A" />
            <stop offset="1" stop-color="#FFB514" />
        </linearGradient>
        <linearGradient id="paint38_linear_153_180" x1="-184.116" y1="-145.999" x2="-491.184" y2="232.122"
            gradientUnits="userSpaceOnUse">
            <stop stop-color="#FFDA8A" />
            <stop offset="1" stop-color="#FFB514" />
        </linearGradient>
        <linearGradient id="paint39_linear_153_180" x1="-224.078" y1="130.674" x2="53.3678" y2="607.139"
            gradientUnits="userSpaceOnUse">
            <stop stop-color="#FFDA8A" />
            <stop offset="1" stop-color="#FFB514" />
        </linearGradient>
        <linearGradient id="paint40_linear_153_180" x1="-282.108" y1="3.18946" x2="-288.831" y2="596.054"
            gradientUnits="userSpaceOnUse">
            <stop stop-color="#FFDA8A" />
            <stop offset="1" stop-color="#FFB514" />
        </linearGradient>
        <linearGradient id="paint41_linear_153_180" x1="-238.59" y1="-203.285" x2="-665.109" y2="285.73"
            gradientUnits="userSpaceOnUse">
            <stop stop-color="#FFDA8A" />
            <stop offset="1" stop-color="#FFB514" />
        </linearGradient>
        <linearGradient id="paint42_linear_153_180" x1="20.2021" y1="12.2359" x2="45.1785" y2="-30.6566"
            gradientUnits="userSpaceOnUse">
            <stop stop-color="#FFDA8A" />
            <stop offset="1" stop-color="#FFB514" />
        </linearGradient>
        <linearGradient id="paint43_linear_153_180" x1="36.339" y1="-13.9101" x2="7.32289" y2="-90.4161"
            gradientUnits="userSpaceOnUse">
            <stop stop-color="#FFDA8A" />
            <stop offset="1" stop-color="#FFB514" />
        </linearGradient>
        <linearGradient id="paint44_linear_153_180" x1="48.0353" y1="9.40564" x2="65.1339" y2="-93.7904"
            gradientUnits="userSpaceOnUse">
            <stop stop-color="#FFDA8A" />
            <stop offset="1" stop-color="#FFB514" />
        </linearGradient>
        <linearGradient id="paint45_linear_153_180" x1="37.428" y1="-46.4774" x2="-56.8749" y2="-122.544"
            gradientUnits="userSpaceOnUse">
            <stop stop-color="#FFDA8A" />
            <stop offset="1" stop-color="#FFB514" />
        </linearGradient>
        <linearGradient id="paint46_linear_153_180" x1="38.9006" y1="-70.0784" x2="-101.971" y2="-148.074"
            gradientUnits="userSpaceOnUse">
            <stop stop-color="#FFDA8A" />
            <stop offset="1" stop-color="#FFB514" />
        </linearGradient>
        <linearGradient id="paint47_linear_153_180" x1="95.0199" y1="-17.8198" x2="57.6487" y2="-219.738"
            gradientUnits="userSpaceOnUse">
            <stop stop-color="#FFDA8A" />
            <stop offset="1" stop-color="#FFB514" />
        </linearGradient>
        <linearGradient id="paint48_linear_153_180" x1="101.01" y1="61.1817" x2="225.892" y2="-153.281"
            gradientUnits="userSpaceOnUse">
            <stop stop-color="#FFDA8A" />
            <stop offset="1" stop-color="#FFB514" />
        </linearGradient>
        <linearGradient id="paint49_linear_153_180" x1="127.187" y1="-48.6841" x2="25.6301" y2="-316.455"
            gradientUnits="userSpaceOnUse">
            <stop stop-color="#FFDA8A" />
            <stop offset="1" stop-color="#FFB514" />
        </linearGradient>
        <linearGradient id="paint50_linear_153_180" x1="55.8197" y1="-158.915" x2="-261.273" y2="-268.922"
            gradientUnits="userSpaceOnUse">
            <stop stop-color="#FFDA8A" />
            <stop offset="1" stop-color="#FFB514" />
        </linearGradient>
        <linearGradient id="paint51_linear_153_180" x1="172.927" y1="33.8615" x2="234.482" y2="-337.644"
            gradientUnits="userSpaceOnUse">
            <stop stop-color="#FFDA8A" />
            <stop offset="1" stop-color="#FFB514" />
        </linearGradient>
        <linearGradient id="paint52_linear_153_180" x1="201.555" y1="-19.0814" x2="161.48" y2="-449.257"
            gradientUnits="userSpaceOnUse">
            <stop stop-color="#FFDA8A" />
            <stop offset="1" stop-color="#FFB514" />
        </linearGradient>
        <linearGradient id="paint53_linear_153_180" x1="215.197" y1="-91.3249" x2="24.9592" y2="-543.473"
            gradientUnits="userSpaceOnUse">
            <stop stop-color="#FFDA8A" />
            <stop offset="1" stop-color="#FFB514" />
        </linearGradient>
        <linearGradient id="paint54_linear_153_180" x1="-0.530991" y1="-269.496" x2="-534.588" y2="-270.571"
            gradientUnits="userSpaceOnUse">
            <stop stop-color="#FFDA8A" />
            <stop offset="1" stop-color="#FFB514" />
        </linearGradient>
        <linearGradient id="paint55_linear_153_180" x1="141.015" y1="-254.033" x2="-369.646" y2="-536.766"
            gradientUnits="userSpaceOnUse">
            <stop stop-color="#FFDA8A" />
            <stop offset="1" stop-color="#FFB514" />
        </linearGradient>
        <linearGradient id="paint56_linear_153_180" x1="290.712" y1="-111.277" x2="58.5832" y2="-723.325"
            gradientUnits="userSpaceOnUse">
            <stop stop-color="#FFDA8A" />
            <stop offset="1" stop-color="#FFB514" />
        </linearGradient>
        <clipPath id="clip0_153_180">
            <rect width="518" height="400" fill="white" />
        </clipPath>
    </defs>
</svg>